<?xml version="1.0" encoding="utf-8"?>
<!-- Generator: Adobe Illustrator 27.5.0, SVG Export Plug-In . SVG Version: 6.00 Build 0)  -->
<svg version="1.1" xmlns="http://www.w3.org/2000/svg" xmlns:xlink="http://www.w3.org/1999/xlink" x="0px" y="0px"
	 viewBox="0 0 500 500" style="enable-background:new 0 0 500 500;" xml:space="preserve">
<g id="BACKGROUND">
  <g>
    <defs>
      <rect id="SVGID_1_" width="500" height="500" />
    </defs>
    <use xlink:href="#SVGID_1_" style="overflow: visible; fill: none;" />
    <clipPath id="SVGID_00000052081138654095278950000003685775241632495021_">
      <use xlink:href="#SVGID_1_" style="overflow: visible;" />
    </clipPath>
    <rect x="-42" y="-40" style="clip-path: url(#SVGID_00000052081138654095278950000003685775241632495021_); fill: none;" width="586" height="585" />
  </g>
</g>

<g id="OBJECTS">
	<path style="fill:#FFD7C2;" d="M431.167,477.761c34.013-13.567,41.567-59.233,33.787-95.016
		c-7.78-35.783-25.542-70.409-22.447-106.897c2.586-30.481,19.441-57.668,28.688-86.827c9.247-29.159,8.322-66.29-16.525-84.133
		c-26.732-19.196-65.123-5.562-95.984-16.993c-41.062-15.209-61.796-71.72-105.545-73.582c-23.637-1.006-44.441,15.47-59.672,33.574
		c-15.231,18.104-27.76,39.061-46.947,52.903c-21.945,15.832-49.785,20.373-75.05,30.065c-25.265,9.692-50.807,28.608-53.229,55.559
		c-3.49,38.836,41.428,66.156,47.361,104.695c3.91,25.395-9.833,49.684-20.981,72.834c-11.148,23.15-19.88,51.419-6.908,73.598
		c14.945,25.554,65.996,44.941,108.359,24.885c70.401-33.331,103.313-23.661,154.434-9.846
		C343.26,464.133,390.282,494.303,431.167,477.761z"/>
	<g>
		<g>
			
				<ellipse transform="matrix(0.6699 -0.7425 0.7425 0.6699 -85.1593 139.327)" style="fill:#FF4040;" cx="114.1" cy="165.429" rx="11.401" ry="21.084"/>
			<path style="fill:#FFA26E;" d="M109.189,179.628l45.192,49.206l25.697-31.269l-51.806-37.246
				c-1.918-1.536-3.833-3.07-5.751-4.606c-7.218-6.359-17.3-5.836-21.501-0.714c-4.013,4.892-2.973,14.363,3.867,20.468
				C106.322,176.854,107.753,178.239,109.189,179.628z"/>
		</g>
		<g>
			<path style="fill:#FFA26E;" d="M331.173,421.57c15.905,6.746,28.539,19.238,40.936,31.272
				c12.397,12.034,42.711,41.337,58.977,47.158h68.5v-92.417c0,0-76.047-36.792-88.064-48.583
				c-25.151-24.676-28.497-23.625-54.936-46.915c-26.44-23.29-57.457-42.943-92.188-48.879
				c-21.702-3.709-45.426-1.466-63.304,11.384c-19.523,14.033-27.139,40.889-19.266,63.519c8.035,23.094,9.915,26.748,30.246,39.48
				C224.387,385.3,312.171,413.51,331.173,421.57z"/>
			<path style="fill:#DE8D60;" d="M308.796,358.384c3.704-26.543,18.482-44.707,16.165-70.432
				c-18.596-11.967-38.854-21.036-60.562-24.747c-21.702-3.709-45.426-1.466-63.304,11.384
				c-19.523,14.033-27.139,40.889-19.266,63.519c4.574,13.146,13.821,24.956,24.005,35.454
				C244.147,377.602,291.16,373.181,308.796,358.384z"/>
		</g>
		<g>
			<path style="fill:#474747;" d="M291.848,365.941H160.725c-12.586,0-22.789-10.203-22.789-22.789V80.875
				c0-19.435,15.755-35.189,35.189-35.189h106.323c19.435,0,35.189,15.755,35.189,35.189v262.277
				C314.638,355.738,304.435,365.941,291.848,365.941z"/>
			<path style="fill:#FFFFFF;" d="M278.949,351.451H173.625c-16.397,0-29.689-6.292-29.689-22.689V85.536
				c0-16.397,13.292-29.689,29.689-29.689h105.324c16.397,0,29.689,13.292,29.689,29.689v243.226
				C308.638,345.158,295.346,351.451,278.949,351.451z"/>
			<path style="fill:#FFC4A6;" d="M230.32,103.658h-11.373c-3.78,0-6.872-3.093-6.872-6.873V85.412c0-3.78,3.093-6.872,6.872-6.872
				h11.373c3.78,0,6.872,3.093,6.872,6.872v11.372C237.193,100.565,234.1,103.658,230.32,103.658z"/>
			<path style="fill:#474747;" d="M226.441,54.846h-0.309h-40.491c9.564,0,21.731,17.823,40.593,17.823
				c0.018,0,0.035-0.001,0.053-0.001c0.018,0,0.035,0.001,0.053,0.001c18.862,0,31.029-17.823,40.593-17.823H226.441z"/>
			<rect x="153.833" y="115.949" style="opacity:0.63;fill:#BDDBD1;" width="142.908" height="142.908"/>
			<path style="fill:#FFFFFF;" d="M143.936,269.558v60.348c0,15.765,12.78,21.544,28.544,21.544h107.613
				c15.765,0,28.544-5.78,28.544-21.544v-60.348H143.936z"/>
			<rect x="157.6" y="112.938" style="fill:#B3EBDB;" width="142.908" height="142.908"/>
			<g>
				<rect x="217.663" y="192.401" style="fill:#FEB389;" width="29.655" height="26.414"/>
				<path style="fill:#E69669;" d="M217.663,192.401v7.682c5.058,3.673,10.136,7.42,16.278,6.652
					c4.021-0.402,9.682-3.711,13.378-4.826v-9.508H217.663z"/>
				<path style="fill:#D65C5C;" d="M273.871,221.762c-3.426-5.673-8.667-10.372-14.953-12.469
					c-6.286-2.097-13.606-1.376-18.981,2.501c-1.903,1.373-3.68,3.167-5.997,3.535c-0.49,0.078-0.973,0.082-1.45,0.035
					c-0.477,0.047-0.96,0.043-1.45-0.035c-2.317-0.368-4.094-2.162-5.997-3.535c-5.375-3.876-12.695-4.598-18.981-2.501
					c-6.286,2.097-11.527,6.796-14.953,12.469c-3.746,6.203-9.782,20.454-1.57,25.487c2.18,1.336,4.749,1.859,7.267,2.303
					c11.765,2.072,23.746,2.892,35.684,2.478c11.938,0.414,23.92-0.406,35.684-2.478c2.518-0.443,5.087-0.966,7.267-2.303
					C283.653,242.216,277.617,227.966,273.871,221.762z"/>
				<path style="fill:#A63F3F;" d="M208.018,208.741c0.923-1.127,2.013-2.326,3.292-3.534c2.229-2.107,4.437-3.68,6.353-4.846
					c4.459,4.99,8.918,9.979,13.378,14.969c-1.88,0.732-4.187,1.827-6.616,3.486c-3.067,2.094-5.271,4.363-6.761,6.158
					c-1.777-2.275-3.665-4.963-5.498-8.077C210.46,213.998,209.102,211.242,208.018,208.741z"/>
				<path style="fill:#A63F3F;" d="M256.963,208.837c-0.923-1.127-2.013-2.326-3.292-3.534c-2.229-2.106-4.437-3.68-6.353-4.846
					c-4.459,4.99-8.918,9.979-13.378,14.969c1.88,0.731,4.187,1.827,6.616,3.486c3.068,2.094,5.271,4.364,6.761,6.158
					c1.777-2.275,3.665-4.963,5.498-8.077C254.521,214.094,255.879,211.338,256.963,208.837z"/>
				<path style="fill:#FEB389;" d="M231.554,139.263H217.08c-3.846,0-6.965,3.118-6.965,6.965v37.284
					c0,5.606,2.599,10.896,7.036,14.322l3.34,2.579c3.168,2.446,7.057,3.772,11.058,3.772h0.005h0.005
					c4.002,0,7.891-1.327,11.058-3.772l3.34-2.579c4.437-3.426,7.036-8.716,7.036-14.322v-38.011c0-3.445-2.793-6.238-6.238-6.238
					H231.554z"/>
				<path style="fill:none;stroke:#D48559;stroke-linecap:round;stroke-linejoin:round;stroke-miterlimit:10;" d="M229.216,158.932
					c1.136,4.214,0.967,8.771-0.479,12.889c0.767,0.946,1.896,1.592,3.1,1.772"/>
				<ellipse style="fill:#333331;" cx="220.147" cy="166.406" rx="1.917" ry="3.386"/>
				<path style="fill:none;stroke:#69554B;stroke-miterlimit:10;" d="M223.137,157.811c-1.641-0.936-3.622-1.259-5.475-0.893
					c-1.853,0.367-3.562,1.42-4.723,2.91c0.143-0.204,0.286-0.408,0.429-0.613"/>
				<path style="fill:#333331;" d="M239.247,166.406c0,1.87,0.858,3.386,1.917,3.386c1.059,0,1.917-1.516,1.917-3.386
					c0-1.87-0.858-3.386-1.917-3.386C240.105,163.02,239.247,164.536,239.247,166.406z"/>
				<path style="fill:none;stroke:#69554B;stroke-miterlimit:10;" d="M238.174,157.811c1.641-0.936,3.622-1.259,5.475-0.893
					c1.853,0.367,3.562,1.42,4.723,2.91c-0.143-0.204-0.286-0.408-0.429-0.613"/>
				<path style="fill:none;stroke:#D48559;stroke-linecap:round;stroke-linejoin:round;stroke-miterlimit:10;" d="M231.092,184.216
					c4.096,0.578,8.419-2.047,9.795-5.948"/>
				<path style="fill:#69554B;" d="M252.993,173.815c7.253-6.648,7.583-17.696,4.453-27.023c-0.4-1.193-0.908-2.385-1.78-3.292
					c-0.873-0.906-1.747-0.965-2.972-0.679c-0.902-3.931-4.56-6.755-8.443-7.844s-8.005-0.759-12.024-0.421
					c-9.855,0.83-19.812,1.103-29.667,1.933c4.524,4.867,10.748,12.122,17.327,13.061c6.578,0.938,13.465-0.446,19.169-3.855
					c2.353,2.145,6.38,2.462,8.734,4.606c1.473,4.732,3.398,9.765,4.25,12.525C253.098,166.262,253.103,169.98,252.993,173.815z"/>
				<path style="fill:#69554B;" d="M212.318,139.787c-0.887,11.656-1.316,21.793-2.202,33.449
					c-0.902-11.745-7.556-17.943-3.249-33.449C208.617,139.837,210.567,139.736,212.318,139.787z"/>
				<path style="fill:#FEB389;" d="M210.78,167.216c-0.299-1.532-2.199-2.36-3.69-1.898c-1.491,0.462-2.526,1.865-3.02,3.345
					c-0.795,2.386-0.383,5.141,1.075,7.19c1.458,2.049,3.927,3.34,6.442,3.369C211.25,174.547,211.677,171.817,210.78,167.216z"/>
				<path style="fill:#FEB389;" d="M252.539,167.216c0.299-1.532,2.2-2.36,3.69-1.898c1.491,0.462,2.526,1.865,3.02,3.345
					c0.795,2.386,0.383,5.141-1.075,7.19c-1.459,2.049-3.927,3.34-6.442,3.369C252.07,174.547,251.643,171.817,252.539,167.216z"/>
			</g>
			<rect x="157.6" y="230.812" style="fill:#FFFFFF;" width="142.908" height="25.034"/>
			<circle style="opacity:0.54;fill:#B0B0B0;" cx="269.534" cy="317.004" r="23.085"/>
			<circle style="opacity:0.54;fill:#B0B0B0;" cx="182.749" cy="317.471" r="23.085"/>
			
				<line style="fill:none;stroke:#7D7D79;stroke-width:3;stroke-miterlimit:10;" x1="167.587" y1="239.327" x2="218.23" y2="239.327"/>
			<circle style="fill:#FF4040;" cx="271.534" cy="314.004" r="23.085"/>
			<circle style="fill:#59A18E;" cx="184.749" cy="314.471" r="23.085"/>
			<path style="fill:none;stroke:#FFFFFF;stroke-width:5;stroke-miterlimit:10;" d="M171.242,326.921
				c0.705-0.94,27.013-24.899,27.013-24.899"/>
			<path style="fill:none;stroke:#FFFFFF;stroke-width:5;stroke-miterlimit:10;" d="M198.255,326.921
				c-0.705-0.94-27.013-24.899-27.013-24.899"/>
			<path style="fill:#FFFFFF;" d="M284.057,317.194l-12.482,12.482l-12.482-12.482c-3.937-3.497-4.34-9.237-1.603-12.641
				c3.115-3.873,9.966-2.308,14.085,2.159c3.52-4.015,9.321-6.438,12.724-3.706C288.168,306.114,288.608,313.04,284.057,317.194z"/>
			
				<line style="fill:none;stroke:#828282;stroke-width:2.9214;stroke-linecap:round;stroke-linejoin:round;stroke-miterlimit:10;" x1="212.702" y1="61.942" x2="226.893" y2="61.942"/>
			
				<line style="fill:none;stroke:#828282;stroke-width:2.9214;stroke-linecap:round;stroke-linejoin:round;stroke-miterlimit:10;" x1="234.018" y1="61.942" x2="239.16" y2="61.942"/>
			
				<line style="fill:none;stroke:#616161;stroke-width:2;stroke-linecap:round;stroke-linejoin:round;stroke-miterlimit:10;" x1="191" y1="359" x2="256.963" y2="359"/>
			<g>
				<g>
					<path style="fill:#3D3D3D;" d="M287.708,68.023l0.002-0.372l-1.286-0.008l-0.002,0.372l-1.45-0.009l-0.038,6.32l4.186,0.025
						l0.038-6.32L287.708,68.023z M288.681,73.908l-3.304-0.02l0.033-5.438l3.304,0.02L288.681,73.908z"/>
					
						<rect x="285.76" y="70.967" transform="matrix(0.006 -1 1 0.006 213.0665 358.845)" style="fill:#3D3D3D;" width="2.558" height="2.558"/>
				</g>
				<path style="fill:#3D3D3D;" d="M276.384,74.61l4.645-6.223c0,0-1.383-0.982-4.601-1.002c-3.03-0.018-4.613,0.946-4.613,0.946
					L276.384,74.61z"/>
				
					<text transform="matrix(1 0.006 -0.006 1 164.4522 73.7775)" style="fill:#3D3D3D; font-family:'Roboto-Medium'; font-size:9.7381px;">10:10</text>
				<polygon style="fill:#3D3D3D;" points="260.034,74.444 267.168,74.444 267.168,67.551 				"/>
			</g>
		</g>
		<g>
			<g>
				
					<rect x="194.08" y="97.074" transform="matrix(0.9075 0.42 -0.42 0.9075 95.3493 -95.9471)" style="opacity:0.63;fill:#BDDBD1;" width="142.908" height="142.908"/>
				
					<rect x="198.08" y="95.074" transform="matrix(0.9075 0.42 -0.42 0.9075 94.8791 -97.8123)" style="fill:#FFBABA;" width="142.908" height="142.908"/>
				<g>
					
						<rect x="248.914" y="174.019" transform="matrix(0.9075 0.42 -0.42 0.9075 103.0366 -93.4643)" style="fill:#FEB389;" width="29.655" height="26.414"/>
					<path style="fill:#E69669;" d="M278.817,189.955l3.928-8.486l-26.912-12.456l-3.709,8.013
						C257.293,188.779,267.434,191.742,278.817,189.955z"/>
					<path style="fill:#59A18E;" d="M294.509,219.268c-0.726-6.587-3.509-13.053-8.332-17.596s-11.77-6.963-18.275-5.703
						c-2.303,0.446-4.67,1.328-6.927,0.689c-0.477-0.135-0.918-0.335-1.33-0.578c-0.452-0.157-0.889-0.364-1.301-0.641
						c-1.949-1.307-2.807-3.682-3.958-5.727c-3.249-5.775-9.589-9.505-16.175-10.242c-6.586-0.737-13.316,1.326-18.807,5.035
						c-6.005,4.056-17.468,14.453-12.131,22.47c1.417,2.128,3.529,3.682,5.627,5.142c9.806,6.822,20.335,12.599,31.343,17.238
						c10.66,5.391,21.878,9.679,33.424,12.74c2.471,0.655,5.022,1.26,7.562,0.963C294.795,241.938,295.303,226.47,294.509,219.268z"
						/>
					
						<rect x="248.949" y="194.353" transform="matrix(0.9075 0.42 -0.42 0.9075 112.8628 -85.9943)" style="fill:#6BC2AB;" width="5.479" height="37.827"/>
					<path style="fill:#ACE0D3;" d="M257.506,203.724c-0.358,0.773-1.2,1.143-1.882,0.827c-0.682-0.316-0.945-1.198-0.587-1.97
						c0.357-0.773,1.2-1.143,1.882-0.827C257.6,202.069,257.863,202.952,257.506,203.724z"/>
					<path style="fill:#ACE0D3;" d="M254.389,210.67c-0.357,0.773-1.2,1.143-1.882,0.827c-0.682-0.316-0.945-1.198-0.587-1.97
						c0.358-0.773,1.2-1.143,1.882-0.827C254.484,209.015,254.747,209.897,254.389,210.67z"/>
					<path style="fill:#ACE0D3;" d="M251.273,217.616c-0.358,0.772-1.2,1.143-1.882,0.827c-0.682-0.316-0.945-1.198-0.587-1.97
						c0.357-0.773,1.2-1.143,1.882-0.827C251.368,215.961,251.63,216.843,251.273,217.616z"/>
					<path style="fill:#52423A;" d="M273.402,163.836L273.402,163.836c-12.445-5.76-17.864-20.518-12.104-32.963l2.615-5.65
						c1.225-2.647,4.364-3.799,7.01-2.574l35.585,16.47c2.59,1.199,3.718,4.271,2.519,6.861l-2.662,5.752
						C300.605,164.177,285.847,169.596,273.402,163.836z"/>
					<path style="fill:#FEB389;" d="M260.158,137.008c-0.532-1.647-1.969-3.134-3.7-3.149c-1.644-0.015-3.041,1.269-3.828,2.712
						c-1.576,2.888-1.275,6.695,0.736,9.299c0.919,1.19,2.346,2.18,3.83,1.938c1.2-0.196,2.156-1.175,2.654-2.284
						C260.845,143.308,260.899,139.302,260.158,137.008z"/>
					<path style="fill:#FEB389;" d="M302.32,156.522c1.6-0.661,3.664-0.527,4.796,0.783c1.075,1.243,1,3.139,0.41,4.673
						c-1.181,3.071-4.279,5.305-7.566,5.456c-1.502,0.069-3.181-0.378-3.956-1.666c-0.627-1.042-0.5-2.404,0.024-3.502
						C297.072,160.076,300.091,157.443,302.32,156.522z"/>
					
						<path style="fill:none;stroke:#E0A07C;stroke-width:0.9988;stroke-linecap:round;stroke-linejoin:round;stroke-miterlimit:10;" d="
						M302.35,158.824c0.808-0.545,2.007-0.089,2.49,0.759c0.483,0.848,0.378,1.924,0.014,2.829c-0.516,1.285-1.633,2.41-3.006,2.562
						s-2.862-0.968-2.789-2.351"/>
					
						<path style="fill:none;stroke:#E0A07C;stroke-width:0.9988;stroke-linecap:round;stroke-linejoin:round;stroke-miterlimit:10;" d="
						M258.016,138.091c-0.199-0.954-1.376-1.465-2.313-1.194c-0.937,0.271-1.613,1.114-1.985,2.017
						c-0.527,1.28-0.513,2.866,0.365,3.933c0.878,1.067,2.725,1.304,3.638,0.263"/>
					<path style="fill:#376358;" d="M240.216,179.79c1.311-0.635,2.804-1.265,4.472-1.825c2.908-0.975,5.572-1.476,7.801-1.73
						c1.951,6.401,3.902,12.802,5.853,19.203c-2.013-0.126-4.568-0.1-7.469,0.384c-3.663,0.612-6.617,1.746-8.722,2.748
						c-0.658-2.811-1.241-6.043-1.596-9.639C240.224,185.586,240.15,182.515,240.216,179.79z"/>
					<path style="fill:#376358;" d="M284.594,200.436c-0.364-1.411-0.85-2.956-1.503-4.59c-1.138-2.848-2.481-5.204-3.73-7.067
						c-6.142,2.655-12.285,5.31-18.428,7.965c1.399,1.454,3.032,3.417,4.54,5.943c1.904,3.189,2.951,6.174,3.549,8.428
						c2.569-1.318,5.411-2.965,8.382-5.021C280.17,204.18,282.559,202.25,284.594,200.436z"/>
					<path style="fill:#FEB389;" d="M290.759,126.624l-13.135-6.08c-3.491-1.616-7.63-0.096-9.246,3.395l-15.661,33.836
						c-2.355,5.088-2.218,10.979,0.369,15.952l1.948,3.743c1.847,3.55,4.819,6.388,8.451,8.068l0.004,0.002l0.004,0.002
						c3.632,1.681,7.718,2.11,11.62,1.221l4.114-0.938c5.466-1.245,10.046-4.954,12.401-10.042l15.966-34.495
						c1.447-3.127,0.086-6.834-3.041-8.281L290.759,126.624z"/>
					<g>
						<g>
							<path style="fill:#69554B;" d="M284.671,168.464c-1.317-1.129-1.421-3.037-1.685-4.717c-0.264-1.68-1.134-3.64-2.854-3.861
								c-1.232-0.158-2.465,0.684-3.653,0.31c-1.363-0.429-1.816-2.162-3.016-2.94c-1.397-0.906-3.233-0.228-4.664,0.556
								c-1.43,0.784-3.058,1.691-4.636,1.158c-1.107-0.374-1.874-1.383-2.389-2.415c-0.515-1.032-0.859-2.149-1.507-3.109
								c-0.968-1.435-2.613-2.415-4.342-2.605l-3.185,6.882c-2.355,5.088-2.218,10.979,0.369,15.952l1.948,3.743
								c1.847,3.55,4.819,6.387,8.451,8.068l0.004,0.002l0.004,0.002c3.632,1.681,7.718,2.111,11.62,1.221l4.114-0.937
								c5.466-1.245,10.046-4.954,12.401-10.042l3.496-7.554c-1.419-0.012-2.923,0.335-4.101,0.786
								C289.131,169.702,286.251,169.819,284.671,168.464z"/>
						</g>
					</g>
					<path style="fill:none;stroke:#D48559;stroke-linecap:round;stroke-linejoin:round;stroke-miterlimit:10;" d="M280.376,143.491
						c-0.739,4.302-2.807,8.366-5.849,11.496c0.298,1.181,1.052,2.241,2.069,2.91"/>
					<path style="fill:#333331;" d="M270.746,147.27c-0.785,1.697-2.201,2.712-3.162,2.268c-0.961-0.445-1.103-2.181-0.318-3.878
						c0.785-1.697,2.201-2.712,3.162-2.268C271.389,143.837,271.532,145.573,270.746,147.27z"/>
					<path style="fill:none;stroke:#69554B;stroke-width:2;stroke-linecap:round;stroke-linejoin:round;stroke-miterlimit:10;" d="
						M275.33,139.921c-1.096-1.539-2.758-2.664-4.593-3.11c-1.836-0.446-3.829-0.208-5.508,0.657
						c0.216-0.125,0.431-0.251,0.647-0.376"/>
					<path style="fill:#333331;" d="M286.339,154.487c-0.785,1.697-0.643,3.433,0.318,3.878c0.961,0.445,2.377-0.57,3.162-2.267
						c0.785-1.697,0.643-3.433-0.318-3.878C288.54,151.775,287.125,152.79,286.339,154.487z"/>
					<path style="fill:none;stroke:#69554B;stroke-width:2;stroke-linecap:round;stroke-linejoin:round;stroke-miterlimit:10;" d="
						M288.976,146.237c1.882-0.161,3.816,0.379,5.343,1.49c1.528,1.111,2.636,2.785,3.064,4.624
						c-0.044-0.245-0.088-0.491-0.132-0.736"/>
					<path style="fill:#FEB389;" d="M276.906,167.743c-1.821-0.843-2.916-2.588-2.965-4.395c-1.409,1.133-3.448,1.427-5.269,0.584
						c-0.035-0.016-0.067-0.036-0.101-0.053c-0.059,1.9,1.056,3.777,2.966,4.661s4.063,0.52,5.473-0.755
						C276.977,167.77,276.941,167.759,276.906,167.743z"/>
					<path style="fill:#69554B;" d="M305.463,123.956c4.317,0.151,8.755,2.544,10.645,6.351c1.692,3.409,1.192,7.38-0.105,10.805
						c-3.167,8.362-11.078,14.726-20.276,16.31c2.636-2.884,3.972-6.843,3.636-10.774c-0.336-3.93-2.34-7.786-5.454-10.491
						c-1.729-1.502-3.194-2.939-2.315-5.236c0.526-1.375,1.627-2.656,2.896-3.442C297.7,125.491,301.479,123.816,305.463,123.956z"
						/>
					<path style="fill:#69554B;" d="M288.543,110.932c-5.466-3.508-12.799-3.681-18.847-0.667
						c-6.048,3.014-10.692,9.053-12.402,15.771c3.295-2.973,8.038-4.03,12.007-2.676c3.735,1.274,6.507,4.373,9.476,7
						c2.97,2.626,6.69,4.957,10.655,4.23c3.357-0.615,7.159-4.26,7.39-7.953c0.247-3.949-1.38-8.12-3.536-11.146
						C291.993,113.679,290.388,112.116,288.543,110.932z"/>
					<path style="fill:none;stroke:#614E45;stroke-width:2;stroke-linecap:round;stroke-linejoin:round;stroke-miterlimit:10;" d="
						M294.905,132.688c3.949,1.005,6.668,4.942,7.205,8.982c0.537,4.04-0.752,8.119-2.572,11.765"/>
					<path style="fill:none;stroke:#614E45;stroke-width:2;stroke-linecap:round;stroke-linejoin:round;stroke-miterlimit:10;" d="
						M298.142,128.613c3.587-0.94,7.536,1.196,9.323,4.446c1.787,3.25,1.65,7.31,0.323,10.773c-1.327,3.463-3.726,6.411-6.331,9.051
						"/>
					<path style="fill:none;stroke:#614E45;stroke-width:2;stroke-linecap:round;stroke-linejoin:round;stroke-miterlimit:10;" d="
						M303.872,126.192c1.564-0.353,3.24,0.183,4.506,1.167c1.266,0.984,2.163,2.373,2.834,3.829
						c2.536,5.504,1.919,12.335-1.562,17.295"/>
					<path style="fill:none;stroke:#614E45;stroke-width:2;stroke-linecap:round;stroke-linejoin:round;stroke-miterlimit:10;" d="
						M263.374,116.667c4.727-3.269,9.792-6.657,15.534-6.913c4.59-0.205,9.23,1.775,12.258,5.231
						c3.027,3.456,4.38,8.316,3.573,12.84"/>
					<path style="fill:none;stroke:#614E45;stroke-width:2;stroke-linecap:round;stroke-linejoin:round;stroke-miterlimit:10;" d="
						M291.397,130.554c-0.056-2.877-0.116-5.786-0.855-8.567c-0.738-2.781-2.234-5.464-4.622-7.067
						c-3.496-2.346-8.204-1.954-12.143-0.467c-3.088,1.166-5.943,2.944-8.352,5.201"/>
					<path style="fill:none;stroke:#614E45;stroke-width:2;stroke-linecap:round;stroke-linejoin:round;stroke-miterlimit:10;" d="
						M286.96,133.062c1.78-3.218,0.759-7.514-1.84-10.116c-2.598-2.602-6.448-3.665-10.124-3.537
						c-3.675,0.128-7.227,1.328-10.633,2.716"/>
				</g>
				
					<rect x="173.324" y="207.497" transform="matrix(0.9075 0.42 -0.42 0.9075 115.0555 -82.4666)" style="fill:#FFFFFF;" width="142.908" height="25.034"/>
				
					<line style="fill:none;stroke:#7D7D79;stroke-width:3;stroke-miterlimit:10;" x1="187.191" y1="188.641" x2="235.237" y2="210.792"/>
			</g>
			<path style="fill:#FF4040;" d="M222.759,115.821c2.02-1.172,4.06-2.359,5.749-3.972c1.689-1.612,3.018-3.716,3.249-6.039
				c0.118-1.185-0.065-2.425-0.677-3.447c-0.612-1.022-1.687-1.795-2.874-1.889c-1.474-0.117-2.874,0.811-3.73,2.017
				c-0.856,1.206-1.27,2.661-1.669,4.085h0.237c-0.399-1.424-0.813-2.879-1.669-4.085c-0.856-1.206-2.256-2.133-3.73-2.017
				c-1.187,0.094-2.262,0.867-2.874,1.889c-0.612,1.022-0.795,2.261-0.677,3.447c0.231,2.324,1.56,4.427,3.249,6.039
				c1.689,1.612,3.729,2.8,5.749,3.972H222.759z"/>
			<path style="fill:#FF4040;" d="M224.489,166.992c1.77-1.027,3.558-2.068,5.038-3.481c1.48-1.413,2.645-3.256,2.848-5.292
				c0.103-1.039-0.057-2.125-0.594-3.02c-0.536-0.895-1.478-1.573-2.519-1.656c-1.292-0.102-2.519,0.711-3.269,1.767
				c-0.75,1.057-1.113,2.332-1.463,3.58h0.208c-0.35-1.248-0.712-2.523-1.463-3.58c-0.75-1.057-1.977-1.869-3.269-1.767
				c-1.04,0.082-1.982,0.76-2.519,1.656c-0.536,0.895-0.697,1.982-0.594,3.02c0.203,2.036,1.368,3.879,2.848,5.292
				c1.48,1.413,3.268,2.454,5.038,3.481H224.489z"/>
			<path style="fill:#FF4040;" d="M329.818,159.541c1.875,0.82,3.771,1.646,5.786,2.004c2.015,0.358,4.19,0.207,5.952-0.834
				c0.899-0.531,1.68-1.303,2.085-2.265s0.394-2.122-0.155-3.01c-0.682-1.102-2.063-1.611-3.358-1.591
				c-1.296,0.02-2.539,0.482-3.752,0.938l0.123,0.167c0.799-1.02,1.613-2.067,2.021-3.297c0.408-1.23,0.338-2.7-0.508-3.681
				c-0.682-0.79-1.785-1.149-2.825-1.052c-1.039,0.097-2.01,0.61-2.786,1.308c-1.522,1.368-2.319,3.397-2.584,5.426
				c-0.264,2.029-0.046,4.087,0.173,6.121L329.818,159.541z"/>
			<path style="fill:#FF4040;" d="M312.654,115.749c2.309,0.345,4.645,0.691,6.97,0.486c2.326-0.205,4.677-1.019,6.308-2.69
				c0.832-0.852,1.463-1.935,1.622-3.115c0.159-1.18-0.197-2.455-1.066-3.27c-1.079-1.011-2.751-1.161-4.173-0.753
				c-1.421,0.408-2.653,1.286-3.854,2.149l0.185,0.148c0.577-1.362,1.162-2.757,1.246-4.233c0.084-1.476-0.431-3.075-1.655-3.904
				c-0.986-0.668-2.309-0.734-3.425-0.318c-1.116,0.416-2.033,1.27-2.68,2.27c-1.27,1.959-1.544,4.432-1.232,6.746
				c0.313,2.314,1.166,4.515,2.012,6.692L312.654,115.749z"/>
			<path style="fill:#FF4040;" d="M312.583,206.131c2.306,0.368,4.637,0.738,6.965,0.556c2.328-0.182,4.687-0.971,6.335-2.626
				c0.841-0.844,1.482-1.92,1.654-3.099s-0.172-2.457-1.033-3.281c-1.069-1.022-2.74-1.188-4.165-0.795
				c-1.425,0.393-2.666,1.259-3.876,2.11l0.184,0.15c0.591-1.355,1.19-2.745,1.289-4.22c0.099-1.475-0.4-3.079-1.616-3.921
				c-0.979-0.678-2.301-0.758-3.421-0.353c-1.12,0.405-2.046,1.249-2.703,2.242c-1.29,1.947-1.589,4.417-1.3,6.734
				c0.289,2.317,1.12,4.527,1.944,6.712L312.583,206.131z"/>
		</g>
		<g>
			<path style="fill:#FFA26E;" d="M114.279,249.128c-2.979-5.895-2.799-13.275,0.464-19.018c1.511-2.66,3.84-5.085,6.839-5.689
				c2.795-0.564,9.629-0.47,12.271,0.602c4.731,1.921,15.036,2.279,18.194,5.762c6.592,7.271,2.133,13.457,0.234,17.353
				c-1.899,3.896-5.575,6.696-9.56,8.403c-4.883,2.092-11.858,4.337-17.019,2.52C120.831,257.347,116.614,253.748,114.279,249.128z"
				/>
			<path style="fill:#FF4040;" d="M129.696,234.126c0.606-1.571,1.367-3.18,2.739-4.157c1.807-1.286,7.73-1.126,9.918-0.767
				c3.849,0.631,7.595,1.89,11.044,3.71c1.987,1.049,3.922,2.325,5.241,4.144c1.319,1.819,1.933,4.273,1.114,6.366
				c-0.888,2.268-3.19,3.636-5.435,4.583c-5.054,2.132-8.638,2.965-14.098,2.477c-1.985-0.177-8.639-0.306-10.176-1.799
				C126.25,245,128.502,237.223,129.696,234.126z"/>
		</g>
		<g>
			<path style="fill:#FFA26E;" d="M119.868,264.493c-3.739,0.664-7.741,2.127-9.544,5.469c-1.43,2.65-1.139,5.858-0.809,8.851
				c0.491,4.459,1.111,9.223,4.069,12.595c2.627,2.994,6.664,4.344,10.594,4.99c7.855,1.292,16.082,0.235,23.355-3.002
				c2.787-1.24,5.52-2.869,7.271-5.366c1.71-2.44,2.329-5.57,1.9-8.519c-0.355-2.438-1.419-5.434-3.331-7.11
				c-1.441-1.263-3.581-1.845-5.242-2.778c-5.48-3.079-11.416-5.066-17.7-5.598C126.91,263.728,123.348,263.875,119.868,264.493z"/>
			<path style="fill:#FF4040;" d="M128.928,281.57c0.031,2.909,1.225,5.975,3.709,7.488c1.633,0.994,3.61,1.215,5.518,1.331
				c3.859,0.234,7.737,0.135,11.579-0.295c3.287-0.368,6.658-1.024,9.383-2.899c2.725-1.875,4.654-5.24,3.963-8.475
				c-0.533-2.496-2.523-4.495-4.821-5.605c-2.298-1.111-4.886-1.451-7.432-1.628c-5.548-0.386-11.165-0.078-16.631,0.953
				c-1.726,0.326-3.089,0.561-3.921,2.203C129.275,276.614,128.905,279.402,128.928,281.57z"/>
		</g>
		<g>
			<path style="fill:#FFA26E;" d="M124.825,303.425c-3.296,3.35-4.201,12.898-2.328,17.209c1.641,3.778,5.389,6.318,9.346,7.464
				c3.957,1.146,8.15,1.086,12.267,0.946c3.577-0.122,7.22-0.31,10.574-1.558c3.354-1.248,6.431-3.736,7.514-7.147
				c1.448-4.558-0.974-9.526-4.311-12.952c-3.666-3.763-8.519-4.318-13.668-5.321C139.465,301.141,130.564,297.592,124.825,303.425z
				"/>
			<path style="fill:#FF4040;" d="M138.212,320.621c0.39,2.167,1.491,4.299,3.331,5.358c1.365,0.784,2.977,0.906,4.532,0.934
				c4.788,0.085,9.587-0.563,14.199-1.918c1.653-0.486,3.313-1.078,4.699-2.142c1.386-1.065,2.479-2.675,2.602-4.475
				c0.186-2.734-1.814-5.077-3.894-6.73c-4.397-3.495-9.822-5.502-15.319-5.799c-3.919-0.212-7.797-0.03-9.29,4.319
				C138.002,313.282,137.626,317.368,138.212,320.621z"/>
		</g>
		<g>
			<path style="fill:#FFA26E;" d="M303.482,301.276c-0.905-13.217,2.761-27.109-2.156-39.411
				c-4.021-10.061-13.043-17.085-21.48-23.884c-8.437-6.798-17.103-14.527-19.861-25.005c-0.92-3.495-1.093-7.346,0.463-10.609
				c1.556-3.262,5.165-5.703,8.724-5.074c4.782,0.844,7.104,6.153,10.515,9.609c9.056,9.176,25.196,4.682,36.434,10.998
				c5.663,3.183,9.475,8.785,13.08,14.189C339.152,247.01,376,269.558,389,310.504c2.15,6.772,6.299,24.235,8.47,31.001
				c2.171,6.766,2.926,19.752-0.62,25.909c-5.278,9.162-19.886,0.377-30.451-0.035c-12.428-0.485-24.543-5.13-34.42-12.628
				c-10.296-7.816-15.519-17.447-20.946-28.781C307.195,317.956,304.098,310.268,303.482,301.276z"/>
			<path style="fill:#FF4040;" d="M267.996,191.372c-0.803-1.413-1.576-2.888-2.786-3.972c-1.211-1.084-2.993-1.704-4.492-1.076
				c-1.222,0.512-2.021,1.763-2.284,3.061c-0.263,1.299-0.062,2.647,0.241,3.937c1.901,8.07,8.09,14.998,15.897,17.791
				c1.543,0.552,3.224,0.953,4.811,0.542c6.396-1.658-1.277-6.92-3.169-8.99C273.066,199.222,270.302,195.428,267.996,191.372z"/>
		</g>
	</g>
</g>
</svg>
