<?xml version="1.0" encoding="utf-8"?>
<!-- Generator: Adobe Illustrator 27.5.0, SVG Export Plug-In . SVG Version: 6.00 Build 0)  -->
<svg version="1.1" id="Слой_1" xmlns="http://www.w3.org/2000/svg" xmlns:xlink="http://www.w3.org/1999/xlink" x="0px" y="0px" viewBox="0 0 2000 2000" style="enable-background: new 0 0 2000 2000;" xml:space="preserve">
  <g id="BACKGROUND">
    <rect style="fill: none;" width="2000" height="2000" />
    <path style="fill: #EAF5FF;" d="M919.562,1638.53c121.915-1.139,752.573,126.381,803.906-478.199
      c51.333-604.581-481.243-607.996-653.575-559.038c-172.331,48.959-243.829-231.13-406.994-251.624
      c-163.164-20.494-380.412,118.411-460.16,474.784c-79.749,356.372,118.248,700.22,229.163,763.98
      C542.816,1652.193,919.562,1638.53,919.562,1638.53z" />
  </g>
<g>
	<path style="fill:#CBEBFF;" d="M1119.844,457.684c11.482-27.152,22.149-54.683,30.787-82.841
		c4.255-14.085,8.019-28.357,10.255-42.857c0.548-3.624,0.983-7.262,1.244-10.903c0.264-3.64,0.347-7.289,0.1-10.892
		c-0.275-3.575-0.824-7.206-2.313-10.283c-0.736-1.521-1.762-2.866-3.071-3.626c-0.65-0.385-1.363-0.629-2.115-0.73
		c-0.756-0.085-1.545-0.025-2.333,0.136c-1.585,0.333-3.142,1.102-4.599,2.039c-1.461,0.941-2.837,2.066-4.134,3.286
		c-2.594,2.449-4.896,5.249-7.014,8.181c-4.213,5.894-7.68,12.344-10.639,18.998c-5.905,13.339-9.766,27.558-12.003,41.971
		c-4.437,28.863-1.794,58.741,7.597,86.327l0.116,0.341l-0.002,0.387l-0.542,114.358l-0.848,114.356l-1.122,114.352l-1.356,114.35
		c-0.968,76.233-2.135,152.463-3.464,228.692l-1.078,57.17l-0.548,28.585l-0.636,28.585c-0.873,38.112-1.625,76.226-2.689,114.335
		c-0.226-38.124-0.138-76.244-0.173-114.367l-0.008-28.591l0.082-28.591l0.18-57.18c0.349-76.239,0.857-152.477,1.567-228.713
		l1.159-114.352l1.395-114.35l1.668-114.347l1.974-114.343l0.114,0.727c-9.356-28.34-11.762-58.905-6.965-88.298
		c2.396-14.69,6.551-29.121,12.751-42.684c3.115-6.769,6.745-13.331,11.188-19.383c2.235-3.012,4.669-5.904,7.472-8.484
		c1.404-1.285,2.906-2.489,4.558-3.523c1.65-1.027,3.455-1.918,5.493-2.325c1.017-0.194,2.086-0.268,3.163-0.129
		c1.076,0.151,2.135,0.528,3.061,1.095c1.877,1.139,3.119,2.919,3.96,4.696c1.677,3.619,2.155,7.443,2.407,11.185
		c0.21,3.758,0.073,7.494-0.243,11.201c-0.313,3.708-0.802,7.39-1.402,11.047c-2.448,14.626-6.413,28.896-10.86,42.968
		c-4.462,14.075-9.544,27.937-14.967,41.652C1131.596,430.634,1125.817,444.204,1119.844,457.684z"/>
	<path style="fill:#CBEBFF;" d="M1119.107,479.23c15.79-19.795,32.305-39.049,50.128-57.151c8.952-9.01,18.234-17.735,28.369-25.593
		c5.097-3.891,10.355-7.642,16.323-10.548c3.008-1.406,6.132-2.747,9.926-3.061c0.94-0.084,1.957-0.038,2.998,0.135
		c1.04,0.168,2.152,0.575,3.154,1.225c1.006,0.649,1.861,1.576,2.443,2.575c0.598,1.002,0.918,2.046,1.117,3.043
		c0.4,2.013,0.271,3.857,0.043,5.622c-0.246,1.761-0.662,3.432-1.164,5.049c-1.015,3.23-2.345,6.269-3.838,9.192
		c-2.992,5.849-6.622,11.259-10.598,16.368c-7.967,10.21-17.274,19.281-27.494,27.179c-20.397,15.796-44.998,26.575-70.855,29.667
		l-1.314,0.157l-1.094-0.77c-24.022-16.891-44.582-38.631-60.243-63.456c-7.782-12.444-14.331-25.69-19.108-39.642
		c-2.364-6.982-4.296-14.144-5.382-21.549c-0.534-3.704-0.853-7.472-0.695-11.337c0.082-1.934,0.282-3.893,0.731-5.89
		c0.468-1.985,1.127-4.057,2.583-6.032c0.728-0.973,1.701-1.915,2.929-2.565c1.219-0.66,2.637-0.962,3.925-0.942
		c2.614,0.053,4.673,1.025,6.449,2.054c3.536,2.143,6.215,4.868,8.731,7.658c4.956,5.638,9.015,11.772,12.791,18.032
		c7.465,12.573,13.716,25.703,19.535,38.982C1100.961,424.276,1110.57,451.604,1119.107,479.23
		c-10.068-27.098-20.54-54.061-32.833-80.139c-6.134-13.026-12.696-25.877-20.329-37.967c-3.829-6.015-7.894-11.914-12.602-17.042
		c-2.347-2.526-4.897-4.929-7.602-6.474c-1.329-0.765-2.727-1.252-3.755-1.221c-1.013,0.034-1.638,0.386-2.357,1.35
		c-0.691,0.953-1.2,2.395-1.511,3.92c-0.316,1.537-0.462,3.189-0.498,4.866c-0.063,3.361,0.271,6.822,0.803,10.261
		c1.092,6.891,3.012,13.725,5.361,20.396c4.736,13.356,11.266,26.104,18.898,38.096c15.246,24.042,35.363,44.925,58.574,61.368
		l-2.408-0.611c12.234-1.429,24.267-4.632,35.651-9.429c5.699-2.383,11.239-5.157,16.589-8.27
		c5.352-3.105,10.537-6.513,15.49-10.239c9.9-7.452,18.969-16.079,26.697-25.736c3.842-4.837,7.373-9.928,10.272-15.288
		c1.44-2.679,2.706-5.438,3.647-8.228c0.464-1.394,0.838-2.799,1.059-4.168c0.211-1.357,0.298-2.722,0.09-3.824
		c-0.192-1.145-0.617-1.846-1.223-2.266c-0.604-0.448-1.698-0.67-2.961-0.598c-2.551,0.126-5.43,1.178-8.139,2.407
		c-5.474,2.542-10.709,5.998-15.761,9.642c-10.108,7.359-19.524,15.784-28.716,24.408
		C1153.204,441.784,1136.015,460.389,1119.107,479.23z"/>
	<path style="fill:#CBEBFF;" d="M1116.468,514.375c7.011-4.552,14.046-9.07,21.11-13.542c7.076-4.453,14.201-8.831,21.349-13.173
		c14.303-8.672,28.737-17.14,43.39-25.249c14.669-8.076,29.568-15.768,44.926-22.624c7.691-3.4,15.492-6.608,23.637-9.123
		c4.084-1.236,8.228-2.35,12.672-2.869c2.237-0.219,4.531-0.382,7.17,0.251c1.291,0.347,2.853,0.96,4.063,2.471
		c0.593,0.735,0.98,1.657,1.155,2.526c0.179,0.877,0.153,1.689,0.062,2.426c-0.202,1.471-0.671,2.679-1.191,3.781
		c-0.526,1.103-1.124,2.104-1.758,3.053c-1.268,1.896-2.668,3.6-4.123,5.226c-2.918,3.241-6.063,6.157-9.301,8.937
		c-6.488,5.543-13.392,10.479-20.496,15.07c-14.224,9.162-29.252,16.971-44.787,23.597c-15.533,6.63-31.635,11.968-48.119,15.814
		c-16.479,3.842-33.362,6.179-50.356,6.508l-0.415,0.008l-0.421-0.095c-15.771-3.563-31.36-7.97-46.684-13.198
		c-15.313-5.253-30.358-11.363-44.892-18.599c-14.502-7.278-28.518-15.674-41.366-25.807c-6.391-5.1-12.509-10.624-17.859-17.023
		c-2.657-3.213-5.138-6.638-7.066-10.559c-0.946-1.97-1.79-4.048-2.237-6.384c-0.44-2.293-0.525-5.008,0.682-7.631
		c0.598-1.291,1.536-2.458,2.623-3.325c1.09-0.871,2.29-1.45,3.47-1.856c2.378-0.82,4.678-0.935,6.888-0.91
		c4.416,0.135,8.525,1.1,12.505,2.282c7.942,2.428,15.37,5.865,22.548,9.666c14.328,7.676,27.692,16.805,40.605,26.445
		c12.861,9.722,25.208,20.064,37.225,30.75c6.004,5.348,11.924,10.786,17.769,16.301
		C1105.056,503.066,1110.794,508.69,1116.468,514.375c-5.926-5.422-11.91-10.776-17.962-16.049
		c-6.021-5.307-12.111-10.533-18.277-15.662c-12.337-10.251-24.986-20.119-38.061-29.349c-13.04-9.251-26.504-17.962-40.685-25.116
		c-7.084-3.547-14.356-6.773-21.829-8.899c-3.719-1.044-7.526-1.829-11.154-1.866c-1.787,0.004-3.566,0.17-4.982,0.707
		c-1.452,0.52-2.399,1.313-2.853,2.367c-0.475,1.061-0.522,2.57-0.169,4.18c0.331,1.608,1.023,3.284,1.844,4.91
		c1.676,3.266,3.977,6.366,6.457,9.31c5.019,5.881,10.929,11.128,17.135,15.968c12.483,9.645,26.261,17.685,40.507,24.685
		c28.527,14.059,59.09,23.85,90.144,31.029l-0.835-0.087c16.441-0.267,32.862-2.48,48.944-6.176
		c16.087-3.705,31.844-8.889,47.131-15.197c15.272-6.342,30.088-13.865,44.057-22.679c6.969-4.422,13.741-9.159,20.06-14.365
		c3.144-2.611,6.181-5.349,8.901-8.28c1.355-1.465,2.634-2.982,3.713-4.546c1.063-1.527,1.98-3.252,2.162-4.501
		c0.044-0.296,0.045-0.543,0.015-0.691c-0.034-0.152-0.054-0.225-0.117-0.306c-0.088-0.159-0.533-0.47-1.241-0.658
		c-1.43-0.389-3.389-0.381-5.293-0.198c-3.873,0.385-7.862,1.365-11.786,2.493c-7.864,2.313-15.626,5.289-23.288,8.48
		c-15.331,6.42-30.296,13.82-45.131,21.451c-14.84,7.637-29.498,15.651-44.04,23.878c-7.271,4.113-14.505,8.295-21.729,12.496
		C1130.867,505.883,1123.657,510.11,1116.468,514.375z"/>
</g>
<path style="fill:#CBE7FF;" d="M1056.664,1026.747c114.552-104.782,285.798,102.137,288.346,259.58
	c2.549,157.444-147.443,392.659-255.393,386.978s-169.31-205.671-160.219-295.439
	C938.488,1288.098,987.771,1089.766,1056.664,1026.747z"/>
<g>
	<path style="fill:#CBE7FF;" d="M1200.044,1628.324c0,0-126.13-913.59,110.222-981.768
		c236.352-68.179,45.452,814.731,45.452,814.731s110.222-1009.039,402.252-893.136c292.03,115.903-281.804,1057.9-376.117,1080.626
		C1287.539,1671.504,1200.044,1628.324,1200.044,1628.324z"/>
	<g>
		<path style="fill:#FFFFFF;" d="M1323.19,643.706l-0.755,31.342l-0.883,31.336l-1.778,62.671
			c-1.298,41.776-2.634,83.552-4.106,125.32c-1.384,41.773-3.02,83.535-4.537,125.303l-4.927,125.287l-5.304,125.271
			c-1.902,41.751-3.671,83.508-5.703,125.254l-2.997,62.622l-3.138,62.616l-3.348,62.607l-1.68,31.303l-1.809,31.298l0.752-31.341
			l0.883-31.336l1.771-62.672l1.983-62.663l2.123-62.657c1.382-41.772,3.026-83.535,4.538-125.303l4.937-125.286l5.313-125.271
			c1.896-41.752,3.675-83.509,5.704-125.256c1.941-41.75,4.019-83.494,6.135-125.236l3.343-62.607l1.677-31.304L1323.19,643.706z"/>
		<path style="fill:#FFFFFF;" d="M1192.338,833.214c10.361,13.985,20.438,28.163,30.512,42.341l15.004,21.339l14.869,21.429
			c4.971,7.134,9.833,14.34,14.756,21.506c4.896,7.182,9.845,14.331,14.68,21.555c9.697,14.431,19.492,28.796,29.064,43.309
			l-5.388-0.431c10.055-10.722,20.073-21.475,30.229-32.102l15.187-15.984l15.29-15.887c5.091-5.303,10.198-10.588,15.346-15.837
			c5.145-5.252,10.244-10.545,15.426-15.762c10.329-10.466,20.687-20.905,31.21-31.189c-9.503,11.234-19.173,22.313-28.872,33.366
			c-4.831,5.542-9.746,11.008-14.614,16.516c-4.867,5.51-9.772,10.983-14.696,16.44l-14.751,16.39l-14.854,16.294
			c-9.871,10.892-19.88,21.655-29.853,32.452l-2.938,3.181l-2.451-3.612c-9.764-14.385-19.306-28.919-28.946-43.388
			c-4.832-7.226-9.553-14.526-14.324-21.794c-4.746-7.283-9.553-14.527-14.25-21.844l-14.135-21.919l-14.002-22.01
			C1210.573,862.85,1201.313,848.128,1192.338,833.214z"/>
		<path style="fill:#FFFFFF;" d="M1166.425,1186.784c11.28,2.415,22.492,5.077,33.699,7.755c11.192,2.731,22.384,5.462,33.531,8.355
			l16.728,4.31l16.693,4.437c11.143,2.91,22.221,6.049,33.327,9.083l-3.314,0.823l7.04-6.745l7.097-6.685l14.195-13.368
			c4.722-4.466,9.53-8.842,14.29-13.268c4.782-4.403,9.52-8.854,14.35-13.206l14.434-13.116l14.55-12.995
			c9.761-8.6,19.515-17.206,29.506-25.563c-8.855,9.552-17.948,18.854-27.034,28.164l-13.72,13.867l-13.836,13.746
			c-4.593,4.603-9.279,9.106-13.921,13.657c-4.662,4.529-9.277,9.107-13.979,13.596l-14.075,13.495l-7.037,6.747l-7.095,6.687
			l-1.444,1.36l-1.871-0.537c-11.067-3.178-22.164-6.251-33.196-9.552l-16.568-4.881l-16.533-5.008
			c-11.027-3.318-22.009-6.8-32.991-10.279C1188.281,1194.131,1177.318,1190.581,1166.425,1186.784z"/>
		<path style="fill:#FFFFFF;" d="M1175.406,1379.16c9.872,1.59,19.695,3.392,29.509,5.235c4.913,0.895,9.801,1.895,14.701,2.846
			c4.899,0.952,9.794,1.922,14.677,2.946l14.661,3.023l14.63,3.152l14.623,3.182l14.594,3.309l-3.389,1.119
			c7.824-9.367,15.803-18.603,23.758-27.859c3.959-4.644,7.982-9.232,12.012-13.816l12.086-13.754l12.205-13.652l12.324-13.552
			c8.276-8.982,16.57-17.95,25.124-26.696c-7.261,9.846-14.784,19.47-22.322,29.08l-11.4,14.337l-11.519,14.236l-11.638,14.136
			c-3.879,4.711-7.763,9.419-11.712,14.071c-7.861,9.336-15.698,18.693-23.689,27.918l-1.383,1.596l-2.007-0.476l-14.562-3.451
			l-14.531-3.577l-14.525-3.606l-14.494-3.736c-4.836-1.229-9.658-2.512-14.477-3.813c-4.818-1.303-9.648-2.556-14.454-3.914
			C1194.585,1384.781,1184.971,1382.076,1175.406,1379.16z"/>
		<path style="fill:#FFFFFF;" d="M1757.97,559.06l-13.342,34.447l-13.46,34.4l-26.932,68.794
			c-18.059,45.821-36.154,91.628-54.375,137.383c-18.14,45.788-36.512,91.482-54.773,137.222l-55.137,137.075l-55.486,136.934
			c-18.619,45.595-37.115,91.239-55.856,136.784l-28.063,68.338l-28.194,68.285l-28.389,68.206l-14.198,34.102l-14.319,34.053
			l13.338-34.448l13.459-34.4l26.928-68.797l27.121-68.718l27.252-68.665c18.138-45.789,36.518-91.48,54.775-137.221l55.146-137.072
			l55.495-136.93c18.614-45.597,37.119-91.237,55.856-136.784c18.657-45.58,37.438-91.108,56.257-136.623l28.384-68.208
			l14.198-34.102L1757.97,559.06z"/>
		<path style="fill:#FFFFFF;" d="M1549.848,695.751c5.944,18.184,11.732,36.412,17.441,54.663l8.514,27.392
			c2.811,9.139,5.668,18.263,8.426,27.417c5.547,18.298,11.146,36.582,16.574,54.915l8.199,27.482l8.089,27.515l-5.548-1.584
			l28.199-25.461l28.325-25.322c18.845-16.924,37.873-33.643,56.824-50.448l28.572-25.046c9.513-8.361,19.116-16.622,28.67-24.938
			c19.161-16.571,38.358-33.103,57.783-49.381c-18.258,17.577-36.744,34.9-55.265,52.185c-9.288,8.611-18.527,17.277-27.855,25.844
			l-27.952,25.737c-18.731,17.05-37.386,34.186-56.224,51.116l-28.2,25.461l-28.324,25.322l-4.056,3.625l-1.493-5.21l-7.903-27.568
			l-7.793-27.601c-5.234-18.389-10.298-36.828-15.412-55.252c-2.574-9.207-5.048-18.443-7.567-27.666l-7.479-27.692
			C1559.439,732.784,1554.565,714.29,1549.848,695.751z"/>
		<path style="fill:#FFFFFF;" d="M1438.098,1006.609c6.286,14.737,12.251,29.594,18.25,44.438l8.85,22.32l8.712,22.371
			c2.919,7.452,5.771,14.928,8.609,22.409l8.54,22.435l16.731,44.998l-2.897-2.259c14.976,1.676,29.961,3.251,44.928,5.01
			c14.965,1.768,29.938,3.474,44.888,5.382c14.959,1.826,29.901,3.805,44.843,5.799c14.935,2.061,29.868,4.12,44.772,6.464
			c-15.063-0.855-30.096-1.994-45.128-3.133c-15.025-1.204-30.049-2.424-45.057-3.796c-15.017-1.29-30.012-2.783-45.013-4.214
			c-15-1.44-29.981-3.063-44.973-4.586l-2.152-0.219l-0.745-2.04l-16.481-45.09l-8.065-22.609
			c-2.697-7.533-5.38-15.071-7.997-22.635l-7.895-22.672l-7.757-22.724C1447.989,1037.073,1442.883,1021.9,1438.098,1006.609z"/>
		<path style="fill:#FFFFFF;" d="M1572.902,1406.197c-13.326,1.654-26.67,2.98-40.02,4.186c-6.676,0.609-13.351,1.206-20.031,1.715
			c-6.68,0.525-13.355,1.102-20.041,1.539l-20.047,1.398l-20.06,1.199l-10.029,0.592l-10.035,0.498l-20.071,0.982l-2.385,0.116
			l-0.865-2.151l-9.137-22.718l-8.889-22.822c-2.892-7.638-5.82-15.259-8.612-22.938c-1.425-3.827-2.813-7.67-4.18-11.521
			c-1.385-3.845-2.727-7.707-4.043-11.58c1.846,3.65,3.664,7.313,5.439,10.993c1.794,3.673,3.566,7.354,5.303,11.05
			c3.529,7.37,6.922,14.797,10.353,22.208l10.074,22.323l9.828,22.428l-3.25-2.033l20.058-1.215l10.029-0.6l10.034-0.508
			l20.071-0.997l20.08-0.798c6.692-0.295,13.392-0.45,20.089-0.657c6.695-0.223,13.396-0.359,20.098-0.481
			C1546.066,1406.146,1559.476,1406.007,1572.902,1406.197z"/>
	</g>
</g>
<path style="fill:#E4FFFB;" d="M1159.455,1509.828c0,0,115.977-145.038-11.432-256.182
	c-127.408-111.145-122.824,89.582-184.082,98.584s-175.457-158.943-272.585-47.5c-97.128,111.442-6.561,226.03,46.776,278.151
	c53.337,52.12,211.716,131.62,289.043,93.246S1159.455,1509.828,1159.455,1509.828z"/>
<g>
	<path style="fill:#CBE7FF;" d="M575.076,1621.582c0,0-429.523-43.179-414.752-271.576
		c14.772-228.397,319.303,90.904,319.303,90.904s-317.029-292.03-169.31-397.707c147.72-105.676,240.897,367.027,240.897,367.027
		s-101.132-394.299,34.089-380.663c135.221,13.636,33.138,591.938,33.138,591.938L575.076,1621.582z"/>
	<path style="fill:#FFFFFF;" d="M578.485,1043.203l-1.317,17.329c-0.411,5.776-0.963,11.541-1.162,17.332l-0.883,17.347
		c-0.135,2.892-0.328,5.779-0.414,8.673l-0.227,8.681l-0.453,17.359l-0.102,4.34l-0.017,4.341l-0.032,8.683l-0.065,17.362
		l0.256,17.361c0.633,46.294,2.994,92.548,6.178,138.735c3.281,46.186,7.306,92.322,11.937,138.405
		c4.581,46.088,9.549,92.145,14.772,138.18l1.773,15.628l-8.222-13.41c-24.573-40.083-48.819-80.375-72.502-121.005
		c-5.951-10.139-11.747-20.37-17.601-30.566c-5.877-10.183-11.612-20.448-17.369-30.7c-2.869-5.132-5.779-10.239-8.615-15.391
		l-8.494-15.457l-8.445-15.485l-8.303-15.563l-8.292-15.568l-8.129-15.655l-8.117-15.66l-7.915-15.765l-7.881-15.78l-7.688-15.877
		c-2.547-5.299-5.16-10.566-7.652-15.893l-7.446-15.99l-3.701-8.005l-1.85-4.003l-1.787-4.031l-7.143-16.128
		c-4.848-10.712-9.286-21.604-13.889-32.422l-3.412-8.129l-3.27-8.189l-6.535-16.376l-1.617-4.1l-1.532-4.134l-3.064-8.267
		l-6.125-16.527l6.621,16.334l3.31,8.165l1.655,4.082l1.739,4.048l6.904,16.209l3.449,8.104l3.591,8.043
		c4.841,10.701,9.515,21.473,14.597,32.062l7.493,15.938l1.873,3.983l1.938,3.955l3.875,7.907l7.704,15.836
		c2.573,5.274,5.268,10.492,7.895,15.74l7.931,15.723l8.124,15.624l8.127,15.621l8.286,15.539l8.298,15.531l8.46,15.445
		l8.471,15.438l8.611,15.361l8.593,15.372c2.867,5.122,5.81,10.202,8.711,15.306c5.821,10.196,11.62,20.405,17.562,30.533
		c5.917,10.142,11.776,20.316,17.792,30.401c23.795,40.494,48.102,80.692,72.717,120.706l-6.448,2.218
		c-5.085-46.069-10.056-92.161-14.387-138.324c-4.269-46.167-8.137-92.387-10.786-138.692c-2.723-46.298-4.346-92.68-4.16-139.067
		l0.134-17.393l0.454-17.39l0.227-8.692l0.113-4.347l0.2-4.344l0.842-17.372l0.421-8.684c0.152-2.895,0.41-5.783,0.609-8.675
		l1.285-17.341c0.374-5.783,1.1-11.538,1.684-17.303L578.485,1043.203z"/>
	<path style="fill:#FFFFFF;" d="M202.368,1344.324c27.475,27.523,56.58,53.227,87.103,77.096l11.55,8.814
		c3.858,2.926,7.626,5.967,11.593,8.749l11.766,8.519c3.924,2.838,7.816,5.715,11.854,8.392l11.979,8.216l5.98,4.12
		c1.983,1.388,4.049,2.656,6.069,3.989l12.185,7.911l6.092,3.955c2.027,1.323,4.118,2.548,6.175,3.826l12.346,7.661l6.172,3.834
		c2.054,1.281,4.166,2.47,6.247,3.71l12.527,7.366l6.265,3.684c2.084,1.236,4.218,2.385,6.318,3.593l12.654,7.157
		c4.22,2.384,8.422,4.801,12.711,7.061l12.804,6.897c4.264,2.31,8.493,4.685,12.815,6.885
		c34.313,18.108,69.201,35.169,104.275,51.962c-36.234-14.119-71.861-29.841-106.761-47.098c-8.76-4.243-17.369-8.792-26.029-13.24
		c-4.346-2.196-8.607-4.552-12.887-6.874l-12.836-6.975c-4.308-2.275-8.5-4.757-12.712-7.201l-12.638-7.336
		c-2.1-1.235-4.23-2.418-6.304-3.695l-6.23-3.82l-12.458-7.645c-2.062-1.298-4.157-2.541-6.19-3.884l-6.108-4.015l-12.217-8.029
		c-2.026-1.354-4.096-2.642-6.085-4.05l-5.997-4.182l-11.977-8.387c-4.016-2.76-7.889-5.725-11.789-8.646l-11.696-8.773
		c-3.936-2.875-7.7-5.975-11.505-9.021l-11.37-9.189C256.004,1400.85,227.723,1373.826,202.368,1344.324z"/>
	<path style="fill:#FFFFFF;" d="M447.526,1186.784c0.55,10.686,0.606,21.349,0.489,32.004c-0.086,10.657-0.422,21.302-0.896,31.941
		c-0.486,10.639-1.119,21.271-1.999,31.891c-0.85,10.622-1.877,21.236-3.399,31.827c-0.557-10.686-0.616-21.349-0.498-32.004
		c0.088-10.656,0.422-21.303,0.903-31.941c0.493-10.638,1.125-21.27,2.006-31.891
		C444.984,1207.99,446.009,1197.376,447.526,1186.784z"/>
	<path style="fill:#FFFFFF;" d="M397.528,1089.063c0.55,10.686,0.607,21.348,0.49,32.004c-0.086,10.656-0.422,21.302-0.896,31.94
		c-0.486,10.639-1.12,21.271-1.999,31.892c-0.85,10.622-1.877,21.235-3.4,31.827c-0.556-10.687-0.615-21.35-0.497-32.005
		c0.088-10.656,0.422-21.302,0.903-31.94c0.493-10.638,1.125-21.271,2.006-31.891
		C394.987,1110.268,396.012,1099.653,397.528,1089.063z"/>
	<path style="fill:#FFFFFF;" d="M487.384,1257.24c0.87,10.787,1.246,21.567,1.449,32.345c0.233,10.778,0.217,21.552,0.063,32.324
		c-0.167,10.771-0.481,21.541-1.042,32.307c-0.531,10.767-1.239,21.529-2.444,32.285c-0.876-10.787-1.256-21.567-1.457-32.345
		c-0.231-10.777-0.217-21.552-0.055-32.324c0.175-10.771,0.487-21.541,1.05-32.307
		C485.479,1278.76,486.185,1267.996,487.384,1257.24z"/>
	<path style="fill:#FFFFFF;" d="M234.425,1306.477c2.348,6.881,4.182,13.858,5.897,20.857c1.685,7.005,3.176,14.046,4.503,21.117
		c1.328,7.072,2.483,14.176,3.447,21.316c0.934,7.145,1.745,14.313,2.04,21.578c-2.354-6.879-4.191-13.855-5.904-20.855
		c-1.684-7.005-3.176-14.046-4.496-21.119c-1.321-7.072-2.477-14.177-3.441-21.316
		C235.539,1320.908,234.725,1313.741,234.425,1306.477z"/>
	<path style="fill:#FFFFFF;" d="M285.412,1335.8c1.318,7.187,2.114,14.394,2.791,21.604c0.645,7.213,1.092,14.434,1.373,21.66
		c0.282,7.227,0.389,14.46,0.301,21.7c-0.118,7.242-0.362,14.489-1.131,21.756c-1.324-7.187-2.125-14.394-2.798-21.604
		c-0.645-7.213-1.093-14.433-1.367-21.66c-0.274-7.227-0.382-14.46-0.293-21.7C284.408,1350.313,284.648,1343.066,285.412,1335.8z"
		/>
	<path style="fill:#FFFFFF;" d="M334.044,1358.733c1.401,7.862,2.31,15.748,3.044,23.642c0.766,7.893,1.28,15.796,1.658,23.706
		c0.364,7.911,0.582,15.828,0.555,23.757c0.001,7.928-0.175,15.864-0.847,23.823c-1.407-7.862-2.318-15.748-3.052-23.642
		c-0.763-7.893-1.279-15.796-1.649-23.706c-0.358-7.911-0.577-15.829-0.548-23.758
		C333.205,1374.628,333.379,1366.692,334.044,1358.733z"/>
	<path style="fill:#FFFFFF;" d="M391.077,1389.852c1.59,9.072,2.687,18.175,3.61,27.287c0.954,9.111,1.659,18.237,2.226,27.372
		c0.554,9.136,0.961,18.28,1.123,27.438c0.19,9.158,0.204,18.326-0.277,27.525c-1.596-9.072-2.695-18.175-3.618-27.287
		c-0.951-9.111-1.657-18.237-2.217-27.373c-0.547-9.135-0.956-18.279-1.115-27.439
		C390.618,1408.218,390.602,1399.05,391.077,1389.852z"/>
	<path style="fill:#FFFFFF;" d="M448.95,1433.972c1.229,7.476,1.934,14.965,2.52,22.456c0.553,7.493,0.911,14.99,1.101,22.492
		c0.19,7.502,0.206,15.008,0.027,22.519c-0.21,7.512-0.545,15.026-1.405,22.554c-1.233-7.475-1.942-14.964-2.525-22.456
		c-0.553-7.492-0.911-14.99-1.094-22.491c-0.185-7.502-0.2-15.008-0.021-22.52C447.765,1449.014,448.097,1441.499,448.95,1433.972z"
		/>
	<path style="fill:#FFFFFF;" d="M622.654,1128.644c-3.154,8.969-6.753,17.725-10.508,26.405c-3.728,8.693-7.682,17.278-11.76,25.804
		c-4.089,8.521-8.311,16.978-12.755,25.327c-4.417,8.363-8.994,16.649-14.019,24.721c3.148-8.971,6.745-17.729,10.502-26.408
		c3.729-8.692,7.681-17.278,11.766-25.801c4.096-8.518,8.316-16.975,12.762-25.324
		C613.06,1145.005,617.635,1136.718,622.654,1128.644z"/>
	<path style="fill:#FFFFFF;" d="M632.767,1240.836c-3.5,9.426-7.443,18.633-11.541,27.764c-4.071,9.144-8.366,18.177-12.785,27.148
		c-4.43,8.967-8.992,17.869-13.775,26.661c-4.756,8.806-9.672,17.532-15.033,26.039c3.495-9.429,7.436-18.637,11.534-27.767
		c4.073-9.143,8.367-18.178,12.792-27.146c4.438-8.963,8.998-17.865,13.782-26.656
		C622.498,1258.073,627.411,1249.346,632.767,1240.836z"/>
	<path style="fill:#FFFFFF;" d="M623.684,1355.804c-2.229,5.776-4.884,11.299-7.667,16.745c-2.802,5.436-5.773,10.771-8.887,16.021
		c-3.114,5.251-6.378,10.411-9.81,15.473c-3.449,5.052-7.029,10.024-11.042,14.741c2.222-5.78,4.876-11.304,7.661-16.749
		c2.803-5.435,5.771-10.771,8.892-16.017c3.119-5.247,6.383-10.408,9.816-15.47C616.098,1365.498,619.677,1360.523,623.684,1355.804
		z"/>
</g>
<g>
	<path style="fill:#CBEBFF;" d="M343.155,603.801c-9.551-11.232-18.94-22.605-28.025-34.227
		c-9.09-11.615-17.895-23.466-26.165-35.697c-8.256-12.233-16.104-24.792-22.602-38.123c-1.612-3.337-3.126-6.729-4.479-10.195
		c-1.353-3.465-2.545-7.01-3.409-10.672c-0.819-3.66-1.446-7.463-0.864-11.409c0.303-1.943,0.988-4.003,2.465-5.626
		c0.728-0.806,1.637-1.468,2.625-1.919c0.993-0.438,2.039-0.671,3.069-0.772c2.07-0.188,4.054,0.153,5.927,0.671
		c1.878,0.523,3.659,1.252,5.371,2.086c3.419,1.68,6.573,3.763,9.571,6.018c5.977,4.542,11.319,9.806,16.226,15.413
		c9.793,11.247,17.87,23.906,24.334,37.314c12.937,26.825,19.299,56.817,18.365,86.647l-0.097-0.729l34.322,109.088l34.031,109.178
		l33.771,109.258l33.545,109.327c22.303,72.903,44.414,145.866,66.372,218.876l16.39,54.781l8.188,27.394l8.103,27.419
		c10.778,36.566,21.675,73.097,32.272,109.719c-11.83-36.242-23.36-72.578-35.008-108.877l-8.717-27.229l-8.633-27.257
		l-17.249-54.517c-22.895-72.722-45.635-145.49-68.185-218.317l-33.733-109.27l-33.509-109.339L374.18,713.394l-32.955-109.509
		l-0.112-0.37l0.015-0.359c1.182-29.117-4.76-58.518-17.2-84.938c-6.233-13.187-13.968-25.726-23.413-36.843
		c-4.725-5.542-9.879-10.744-15.591-15.2c-2.861-2.21-5.864-4.242-9.046-5.855c-1.59-0.802-3.228-1.49-4.896-1.979
		c-1.663-0.486-3.374-0.781-4.988-0.651c-0.802,0.069-1.575,0.236-2.275,0.532c-0.693,0.309-1.307,0.746-1.821,1.299
		c-1.04,1.101-1.643,2.681-1.918,4.348c-0.555,3.373-0.051,7.011,0.699,10.518c0.783,3.525,1.899,7.001,3.185,10.417
		c1.282,3.418,2.732,6.782,4.285,10.103c6.257,13.27,13.915,25.889,21.989,38.188C306.406,557.646,324.443,581.021,343.155,603.801z
		"/>
	<path style="fill:#CBEBFF;" d="M349.973,624.255c-21.557-13.273-43.316-26.237-65.824-37.662
		c-11.26-5.663-22.679-11.071-34.46-15.261c-5.878-2.061-11.878-3.891-17.848-4.776c-2.947-0.41-6.006-0.603-8.487,0
		c-1.231,0.289-2.218,0.811-2.669,1.413c-0.462,0.574-0.671,1.367-0.53,2.518c0.113,1.117,0.582,2.4,1.171,3.642
		c0.599,1.252,1.356,2.492,2.197,3.697c1.694,2.41,3.689,4.696,5.831,6.856c4.301,4.317,9.131,8.198,14.186,11.747
		c10.151,7.068,21.295,12.768,32.901,17.107c5.807,2.168,11.746,3.965,17.759,5.425c6.012,1.467,12.111,2.556,18.253,3.225
		c12.277,1.371,24.725,1.03,36.862-1.07l-2.137,1.271c17.594-22.352,30.962-48.083,38.763-75.462
		c3.919-13.665,6.565-27.74,7.318-41.892c0.36-7.064,0.264-14.162-0.645-21.079c-0.466-3.448-1.127-6.862-2.141-10.067
		c-0.511-1.598-1.118-3.141-1.856-4.525c-0.731-1.375-1.628-2.612-2.561-3.33c-0.963-0.721-1.662-0.881-2.644-0.626
		c-0.994,0.262-2.196,1.126-3.255,2.236c-2.154,2.248-3.919,5.275-5.453,8.363c-3.06,6.252-5.284,13.063-7.25,19.916
		c-3.891,13.759-6.538,27.942-8.727,42.174C354.336,566.588,351.942,595.414,349.973,624.255c0.351-28.913,1.814-57.845,5.25-86.644
		c1.814-14.385,4.084-28.748,7.677-42.922c1.846-7.074,3.998-14.108,7.151-20.921c1.622-3.389,3.417-6.762,6.201-9.819
		c1.411-1.49,3.109-3.007,5.601-3.799c1.231-0.385,2.675-0.497,4.031-0.21c1.361,0.275,2.563,0.903,3.536,1.63
		c1.956,1.482,3.176,3.28,4.188,5.052c0.998,1.787,1.745,3.609,2.371,5.44c1.247,3.662,2.011,7.365,2.549,11.068
		c1.06,7.409,1.238,14.824,0.952,22.19c-0.625,14.734-3.148,29.293-7.081,43.434c-7.977,28.247-21.525,54.926-39.771,77.937
		l-0.831,1.049l-1.306,0.222c-25.673,4.369-52.32,1.01-76.36-8.352c-12.039-4.675-23.538-10.733-34.073-18.264
		c-5.262-3.773-10.277-7.932-14.805-12.69c-2.262-2.381-4.398-4.918-6.288-7.727c-0.939-1.409-1.813-2.893-2.549-4.512
		c-0.718-1.627-1.365-3.359-1.553-5.403c-0.091-1.013-0.08-2.104,0.209-3.235c0.275-1.122,0.832-2.254,1.612-3.162
		c0.776-0.907,1.729-1.612,2.678-2.068c0.948-0.461,1.911-0.794,2.836-0.98c3.728-0.774,7.104-0.374,10.388,0.121
		c6.546,1.095,12.653,3.199,18.644,5.485c11.947,4.66,23.323,10.394,34.463,16.495C307.919,595.973,329.217,609.752,349.973,624.255
		z"/>
	<path style="fill:#CBEBFF;" d="M362.473,657.207c-8.104-2.05-16.218-4.059-24.343-6.016c-8.119-1.979-16.241-3.938-24.381-5.819
		c-16.278-3.765-32.608-7.292-49.004-10.406c-16.39-3.11-32.839-5.963-49.361-7.771c-8.253-0.886-16.54-1.539-24.737-1.526
		c-4.082,0.031-8.186,0.223-12.009,0.952c-1.878,0.365-3.759,0.913-5.02,1.691c-0.625,0.382-0.964,0.805-1.003,0.983
		c-0.038,0.096-0.036,0.171-0.026,0.325c0.014,0.151,0.085,0.389,0.211,0.66c0.528,1.146,1.898,2.539,3.35,3.703
		c1.479,1.192,3.135,2.285,4.851,3.306c3.441,2.039,7.129,3.803,10.884,5.415c7.536,3.2,15.374,5.822,23.31,8.086
		c15.896,4.49,32.236,7.502,48.68,9.252c16.449,1.714,33.029,2.215,49.507,1.206c16.469-1.017,32.844-3.552,48.686-7.96l-0.777,0.32
		c27.743-15.692,54.273-33.75,77.642-55.322c11.675-10.753,22.607-22.37,31.843-35.16c4.577-6.4,8.757-13.109,11.901-20.172
		c1.545-3.525,2.871-7.151,3.552-10.759c0.326-1.792,0.514-3.595,0.375-5.232c-0.117-1.643-0.591-3.076-1.347-3.959
		c-0.734-0.884-1.867-1.376-3.408-1.462c-1.509-0.113-3.262,0.233-4.978,0.735c-3.468,1.065-6.896,2.898-10.167,4.953
		c-6.562,4.158-12.621,9.314-18.408,14.726c-11.568,10.883-22.01,23.054-31.891,35.624c-9.919,12.559-19.251,25.609-28.173,38.939
		c-4.459,6.667-8.815,13.405-13.085,20.202C370.837,643.495,366.617,650.327,362.473,657.207c3.828-7.06,7.735-14.08,11.737-21.05
		c4.041-6.945,8.175-13.84,12.417-20.671c8.491-13.655,17.397-27.075,26.973-40.045c9.649-12.907,19.875-25.452,31.438-36.876
		c5.806-5.682,11.953-11.084,18.881-15.665c3.481-2.262,7.147-4.354,11.344-5.734c2.112-0.65,4.351-1.193,6.863-1.081
		c1.246,0.055,2.563,0.269,3.854,0.796c1.288,0.523,2.518,1.376,3.458,2.444c1.901,2.173,2.59,4.801,2.817,7.125
		c0.233,2.367,0.015,4.599-0.335,6.756c-0.736,4.307-2.143,8.294-3.781,12.129c-3.315,7.654-7.615,14.688-12.298,21.391
		c-9.445,13.359-20.506,25.386-32.348,36.479c-11.885,11.062-24.579,21.188-37.773,30.567c-13.211,9.359-26.91,18.008-41.022,25.897
		l-0.377,0.21l-0.4,0.11c-16.39,4.504-33.243,7.052-50.135,8.042c-16.897,0.988-33.853,0.435-50.629-1.517
		c-16.775-1.948-33.401-5.173-49.639-9.925c-8.115-2.388-16.135-5.163-23.929-8.639c-3.895-1.746-7.737-3.65-11.454-5.932
		c-1.856-1.145-3.683-2.382-5.437-3.841c-0.876-0.731-1.733-1.521-2.551-2.429c-0.812-0.91-1.604-1.935-2.215-3.288
		c-0.298-0.681-0.552-1.452-0.629-2.345c-0.079-0.882,0.03-1.876,0.392-2.749c0.73-1.792,2.055-2.824,3.193-3.523
		c2.352-1.356,4.598-1.85,6.805-2.273c4.41-0.763,8.699-0.87,12.966-0.843c8.523,0.102,16.914,0.965,25.254,2.044
		c16.671,2.218,33.14,5.369,49.498,8.953c16.35,3.62,32.593,7.646,48.769,11.905c8.085,2.137,16.159,4.314,24.208,6.577
		C346.431,652.494,354.458,654.83,362.473,657.207z"/>
</g>
<polygon style="fill:#F2A374;" points="606.37,603.656 603.636,626.894 639.176,639.195 596.802,673.368 550.327,662.433 
	555.795,633.727 568.097,626.894 558.528,587.253 591.334,587.253 "/>
<path style="fill:#F2BC9C;" d="M555.111,659.016l42.09,14.03l10.679-8.612l10.514-32.432l-14.758-5.108l1.14-9.687
	c-5.671-1.842-20.707-5.746-30.527,0.802c-2.399,1.599-4.588,4.142-6.561,7.187l0.41,1.698l-2.141,1.189
	C558.916,640.762,555.111,659.016,555.111,659.016z"/>
<path style="fill:#F2BC9C;" d="M624.14,555.815c-7.243-36.215-35.923-49.14-53.31-38.273c-14.216,8.885-30.73,35.095-21.037,58.36
	c-3.23,0.643-6.301,2.787-6.301,8.618c0,12.302,9.568,12.302,13.669,9.568c1.378-0.919,2.441-2.146,3.253-3.37
	c7.197,6.641,17.652,12.536,32.287,17.039C622.176,616.826,629.607,583.152,624.14,555.815z"/>
<path style="fill:#1B1464;" d="M604.251,521.068c-1.804,1.831-3.841,3.403-6.083,4.674c-21.87,12.303-41.772,6.466-41.772,6.466
	c-8.093,12.056-12.932,28.5-6.603,43.686c-3.225,0.656-6.302,2.788-6.302,8.625c0,12.302,9.568,12.302,13.669,9.568
	c1.381-0.916,2.447-2.146,3.253-3.377c1.299,1.203,2.721,2.379,4.238,3.527l0,0c0.423,3.165-1.5,6.186-4.557,7.107
	c-2.643,0.798-6.066,1.693-9.769,2.311c-8.202,1.367-25.972-5.468-27.338-25.972c-1.367-20.503,12.302-27.338,20.503-64.244
	c8.201-36.906,31.439-58.776,54.676-50.575C619.014,470.22,620.066,505.089,604.251,521.068z"/>
<path style="fill:#1B1464;" d="M524.356,935.813c0,0-16.402,72.445-9.568,161.294c6.835,88.849,13.669,513.954,62.878,530.356
	c49.208,16.403,65.611-31.438,75.18-65.61c9.568-34.173,13.669-410.069,13.669-410.069s9.568,35.539,12.302,51.941
	c2.733,16.402-13.669,282.948,0,340.358c13.669,57.409,25.971,80.646,56.043,86.114c30.071,5.468,45.107-235.106,50.575-330.789
	c5.468-95.684,12.302-139.424,0-209.136s-51.942-176.33-51.942-176.33L524.356,935.813z"/>
<path style="fill:#140F4A;" d="M748.704,1614.13c-8.654-8.681-29.737-37.834-32.982-117.889
	c-3.234-79.782,34.35-401.79,50.373-484.034l-0.003-0.012c-0.953-3.219-1.913-6.419-2.876-9.589
	c-0.007-0.021-0.013-0.041-0.018-0.061c-11.1-36.516-22.612-69.045-27.401-82.293c-0.012-0.031-0.023-0.065-0.035-0.095
	c-0.409-1.133-0.769-2.124-1.074-2.961c-0.001-0.002-0.001-0.003-0.002-0.005c-0.14-0.382-0.264-0.723-0.38-1.04
	c-0.023-0.063-0.048-0.131-0.07-0.191c-0.224-0.612-0.4-1.091-0.524-1.427c-0.015-0.041-0.027-0.075-0.041-0.112
	c-0.052-0.139-0.097-0.26-0.125-0.337c-0.001-0.005-0.004-0.013-0.006-0.017c-0.029-0.078-0.047-0.126-0.047-0.126l-209.136,21.87
	c0,0-0.006,0.027-0.017,0.077c-0.001,0.002-0.002,0.006-0.002,0.008c-0.01,0.042-0.024,0.11-0.04,0.184
	c-0.006,0.026-0.014,0.058-0.02,0.089c-0.094,0.429-0.269,1.242-0.511,2.427c-0.001,0.002-0.001,0.004-0.001,0.004
	c-0.06,0.292-0.123,0.607-0.19,0.942c-0.005,0.024-0.009,0.048-0.015,0.072c-0.068,0.344-0.141,0.708-0.217,1.097
	c27.627,14.046,104.552,56.058,121.299,96.251c20.504,49.209,23.05,119.264,23.05,119.264l0,0c0.041,0.154,0.085,0.322,0.127,0.484
	c0.057,0.214,0.112,0.428,0.172,0.653c0.048,0.182,0.097,0.369,0.146,0.56c0.06,0.231,0.123,0.469,0.187,0.712
	c0.05,0.191,0.1,0.382,0.15,0.58c0.074,0.281,0.149,0.573,0.227,0.867c0.046,0.18,0.092,0.353,0.139,0.536
	c0.118,0.455,0.24,0.926,0.364,1.405c0.038,0.149,0.078,0.303,0.117,0.454c0.099,0.386,0.2,0.776,0.302,1.176
	c0.042,0.162,0.084,0.324,0.126,0.488c0.103,0.4,0.207,0.809,0.313,1.223c0.042,0.168,0.084,0.332,0.127,0.5
	c0.143,0.563,0.289,1.132,0.436,1.714c0.02,0.077,0.04,0.157,0.06,0.234c0.129,0.511,0.26,1.027,0.392,1.551
	c0.05,0.198,0.101,0.399,0.15,0.6c0.108,0.429,0.216,0.859,0.325,1.294c0.049,0.193,0.097,0.385,0.145,0.579
	c0.124,0.495,0.248,0.995,0.373,1.498c0.037,0.147,0.073,0.294,0.11,0.442c0.159,0.643,0.319,1.289,0.478,1.94
	c0.026,0.105,0.053,0.212,0.078,0.318c0.133,0.54,0.266,1.082,0.398,1.627c0.048,0.197,0.096,0.395,0.144,0.593
	c0.116,0.478,0.231,0.955,0.348,1.435c0.049,0.201,0.097,0.401,0.146,0.604c0.147,0.614,0.295,1.229,0.441,1.845
	c0.01,0.041,0.019,0.082,0.029,0.123c0.157,0.662,0.313,1.324,0.469,1.984c0.042,0.176,0.082,0.35,0.123,0.525
	c0.115,0.491,0.229,0.982,0.343,1.471c0.047,0.202,0.094,0.402,0.14,0.604c0.115,0.5,0.229,0.998,0.343,1.494
	c0.035,0.156,0.071,0.314,0.107,0.471c0.147,0.65,0.293,1.298,0.436,1.938c0.018,0.075,0.033,0.149,0.05,0.225
	c0.123,0.551,0.243,1.097,0.361,1.638c0.042,0.191,0.083,0.382,0.124,0.572c0.096,0.439,0.189,0.875,0.282,1.308
	c0.042,0.195,0.083,0.392,0.124,0.585c0.103,0.481,0.201,0.957,0.299,1.426c0.023,0.113,0.047,0.229,0.07,0.34
	c0.119,0.58,0.234,1.148,0.345,1.706c0.028,0.14,0.054,0.274,0.081,0.412c0.081,0.412,0.16,0.818,0.236,1.217
	c0.035,0.183,0.069,0.363,0.104,0.544c0.068,0.365,0.135,0.724,0.198,1.077c0.029,0.16,0.06,0.323,0.087,0.48
	c0.089,0.495,0.174,0.98,0.251,1.446c2.733,16.402-13.669,282.948,0,340.358c13.669,57.409,25.971,80.646,56.043,86.114
	C739.886,1631.111,744.492,1625.142,748.704,1614.13z"/>
<path style="fill:#E847FF;" d="M561.945,630.31c0,0,15.72,29.389,33.489,22.554c17.77-6.834,11.303-24.898,11.303-24.898
	s22.87-3.808,59.776,1.66c36.906,5.468,91.582,32.806,91.582,32.806l68.345,129.855l-63.561,26.654L748.527,959.05
	c-83.995,15.49-159.856,10.596-224.172-23.237l-16.402-99.783c0,0-38.273-34.173-34.173-87.482
	c4.101-53.309,27.338-83.381,46.475-95.683C539.392,640.563,561.945,630.31,561.945,630.31z"/>
<path style="fill:#CB1CE6;" d="M775.182,868.151l51.259-75.863l-23.266-44.205c-32.669,9.452-121.265,33.852-154.432,30.536
	c-41.007-4.1-84.747-39.64-84.747-39.64l-66.637,85.146c5.91,7.712,10.594,11.903,10.594,11.903
	c0.93,47.025,5.582,82.76,16.402,99.783c64.315,33.833,140.177,38.727,224.172,23.237
	C764.95,940.266,780.649,895.489,775.182,868.151z"/>
<path style="fill:#140F4A;" d="M583.216,1629.07c0,0-12.386,25.731-9.651,36.666c2.733,10.936,97.05,12.303,99.783,6.835
	c2.734-5.468-10.935-23.237-27.338-30.071c-16.402-6.835-37.641-13.43-37.641-13.43H583.216z"/>
<path style="fill:#140F4A;" d="M724.178,1624.729c0,0-10.911,22.668-8.503,32.302c2.408,9.633,85.495,10.837,87.903,6.021
	s-9.633-20.471-24.083-26.491c-14.45-6.021-33.159-11.831-33.159-11.831H724.178z"/>
<g>
	<polygon style="fill:#FFC371;" points="698.636,672.685 717.771,918.727 966.548,911.892 966.548,668.584 	"/>
	<path style="fill:#FFA658;" d="M717.771,918.727l11.941-0.328c-0.768-40.207,0.356-140.754,29.066-175.816
		c28.596-34.924,155.559-48.469,207.769-52.626v-21.372l-267.912,4.101L717.771,918.727z"/>
	<polygon style="fill:#298BF5;" points="773.815,493.621 783.383,597.505 944.677,587.937 944.677,488.153 	"/>
	<path style="fill:#2071F5;" d="M783.383,597.505l2.384-0.142c6.529-14.936,19.216-33.508,43.407-53.851
		c46.691-39.264,95.847-43.925,115.503-44.047v-11.313l-170.862,5.468L783.383,597.505z"/>
	<path style="fill:#35105F;" d="M849.83,439.87c9.57-9.472,17.039-20.902,21.729-33.331c1.151-3.112,2.23-6.252,3.026-9.468
		c0.804-3.205,1.566-6.46,1.829-9.648c0.267-3.169,0.046-6.371-1.11-9.078c-1.15-2.711-3.292-5.048-5.827-5.971
		c-2.511-0.955-5.392-0.332-7.753,1.302c-2.401,1.617-4.124,4.049-5.261,6.913c-1.148,2.853-1.765,6.026-2.298,9.303
		c-0.546,3.276-0.979,6.571-1.342,9.871c-1.458,13.2-1.529,26.554-0.091,39.749l-4.969-0.004
		c1.325-12.846-1.396-26.145-7.638-37.549c-3.072-5.725-6.963-11.023-11.58-15.604c-1.211-1.081-2.353-2.245-3.618-3.265
		c-1.271-0.991-2.528-2.101-3.809-2.951c-2.542-1.73-5.476-3.046-7.968-2.663c-0.619,0.082-1.205,0.281-1.745,0.592
		c-0.552,0.302-1.043,0.669-1.434,1.137c-0.8,0.914-1.276,2.189-1.444,3.612c-0.325,2.871,0.415,6.064,1.56,8.99
		c0.301,0.733,0.627,1.453,0.985,2.157l1.183,2.182c0.775,1.467,1.66,2.871,2.502,4.301c1.761,2.814,3.636,5.561,5.643,8.215
		c8.014,10.633,18.08,19.761,29.512,26.886c-11.992-6.163-22.7-14.916-31.436-25.36c-2.177-2.619-4.202-5.365-6.13-8.182
		c-0.925-1.433-1.894-2.842-2.752-4.318l-1.313-2.207c-0.438-0.779-0.839-1.576-1.209-2.387c-1.422-3.256-2.427-6.79-2.135-10.651
		c0.167-1.907,0.781-3.971,2.153-5.647c0.666-0.839,1.521-1.531,2.428-2.059c0.901-0.548,1.931-0.931,2.973-1.106
		c2.099-0.391,4.154-0.04,5.954,0.56c1.821,0.602,3.448,1.478,4.977,2.443c1.551,0.976,2.832,2.092,4.233,3.144
		c1.374,1.07,2.621,2.289,3.937,3.43c5.028,4.816,9.292,10.408,12.689,16.483c0.906,1.488,1.598,3.091,2.37,4.65
		c0.748,1.572,1.343,3.213,2.019,4.817c0.544,1.653,1.155,3.288,1.627,4.964c0.426,1.689,0.97,3.351,1.263,5.072
		c1.436,6.822,1.875,13.875,1.171,20.849l-2.473,24.514l-2.496-24.519c-1.381-13.57-1.29-27.292,0.372-40.822
		c0.432-3.381,0.935-6.752,1.553-10.102c0.61-3.343,1.315-6.818,2.74-10.199c0.724-1.689,1.61-3.321,2.781-4.846
		c1.182-1.511,2.583-2.846,4.22-3.882c1.618-1.046,3.476-1.817,5.469-2.115c1.983-0.317,4.111-0.082,5.983,0.679
		c1.883,0.753,3.486,1.977,4.776,3.4c1.287,1.433,2.275,3.075,2.973,4.828c1.389,3.563,1.466,7.298,1.027,10.786
		c-0.438,3.513-1.361,6.802-2.321,10.08c-0.961,3.282-2.183,6.479-3.517,9.614C868.373,419.956,860.156,431.204,849.83,439.87z"/>
	<polygon style="fill:#298BF5;" points="758.779,434.844 765.613,500.455 952.879,493.621 952.879,429.376 	"/>
	<path style="fill:#35105F;" d="M848.994,431.956c1.642,13.259,2.791,26.54,3.767,39.829c0.534,6.643,0.89,13.293,1.329,19.939
		l1.05,19.953l0.781,19.965c0.165,6.659,0.425,13.314,0.497,19.978c0.242,13.323,0.307,26.653-0.124,40.007
		c-1.648-13.258-2.8-26.539-3.774-39.828c-0.536-6.643-0.885-13.294-1.328-19.94l-1.043-19.952l-0.775-19.966
		c-0.168-6.659-0.421-13.314-0.495-19.978C848.637,458.64,848.569,445.31,848.994,431.956z"/>
	<polygon style="fill:#FFC371;" points="679.499,587.937 690.434,689.087 977.482,679.519 977.482,579.735 	"/>
	<path style="fill:#35105F;" d="M798.419,585.341c3.767,27.477,7.041,55.002,10.144,82.544c1.598,13.767,3.017,27.551,4.519,41.327
		l4.242,41.354l3.974,41.381c1.229,13.803,2.554,27.597,3.69,41.409c2.372,27.614,4.567,55.247,6.268,82.928
		c-3.772-27.476-7.049-55.001-10.15-82.543c-1.6-13.767-3.012-27.552-4.519-41.327l-4.235-41.355l-3.968-41.382
		c-1.233-13.803-2.55-27.597-3.69-41.409C802.324,640.653,800.126,613.021,798.419,585.341z"/>
	<path style="fill:#35105F;" d="M885.9,582.24c0.579,27.741,0.664,55.475,0.576,83.205c0.003,13.866-0.174,27.729-0.267,41.594
		l-0.545,41.589l-0.814,41.585c-0.367,13.859-0.64,27.721-1.1,41.579c-0.822,27.719-1.821,55.435-3.317,83.142
		c-0.586-27.741-0.674-55.475-0.584-83.205c-0.005-13.866,0.179-27.729,0.267-41.594l0.553-41.589l0.821-41.584
		c0.363-13.86,0.643-27.722,1.101-41.58C883.414,637.663,884.41,609.948,885.9,582.24z"/>
</g>
<path style="fill:#E847FF;" d="M816.872,827.827l-20.503-20.503c0,0-64.245,27.338-129.855,13.669
	c-65.611-13.669-97.05-91.583-97.05-91.583l-91.633-7.882c-1.897,8.249-3.298,17.239-4.051,27.019
	c-4.101,53.31,34.173,87.482,34.173,87.482C592.701,930.345,764.93,944.014,816.872,827.827z"/>
<path style="fill:#F2BC9C;" d="M796.369,807.324c0,0,5.467-25.972,15.035-25.972s0,12.303,0,12.303s23.238-27.338,31.44-12.303
	c8.201,15.036-25.972,46.475-25.972,46.475L796.369,807.324z"/>
<path style="fill:#35105F;" d="M574.574,886.133c1.898-5.012,4.912-9.604,8.572-13.603c3.698-3.965,8.167-7.32,13.218-9.527
	c2.516-1.111,5.149-1.969,7.846-2.548c2.704-0.523,5.449-0.865,8.201-0.911c5.513-0.11,10.964,0.818,16.225,2.271
	c5.252,1.517,10.349,3.742,14.901,6.84c2.291,1.521,4.415,3.289,6.392,5.191c2.004,1.881,3.76,4.007,5.36,6.221
	c3.235,4.422,5.572,9.418,7.221,14.563c1.578,5.167,2.548,10.531,2.471,15.893c-0.588-5.314-1.937-10.493-3.86-15.404
	c-0.958-2.457-2.077-4.844-3.367-7.126c-1.281-2.285-2.708-4.484-4.336-6.521c-6.413-8.24-15.565-14.036-25.608-16.775
	c-5.004-1.44-10.193-2.331-15.371-2.32c-2.592-0.025-5.171,0.23-7.721,0.651c-2.536,0.494-5.033,1.19-7.449,2.126
	c-4.824,1.895-9.257,4.809-13.081,8.409C580.354,877.157,577.068,881.409,574.574,886.133z"/>
<path style="fill:#F2F2F2;" d="M597.201,585.192l19.363,0.82c0,0-1.813,10.207-9.112,10.112
	C600.153,596.029,597.201,585.192,597.201,585.192z"/>
<polygon style="fill:#F2A374;" points="1438.015,613.023 1440.687,635.741 1405.943,647.768 1447.368,681.175 1492.803,670.484 
	1487.457,642.422 1475.431,635.741 1484.784,596.988 1452.714,596.988 "/>
<path style="fill:#F2BC9C;" d="M1488.125,667.144l-41.147,13.716l-10.439-8.419l-10.278-31.706l14.427-4.993l-1.114-9.47
	c5.545-1.801,20.244-5.617,29.845,0.783c2.346,1.564,4.485,4.05,6.414,7.026l-0.4,1.66l2.093,1.162
	C1484.405,649.299,1488.125,667.144,1488.125,667.144z"/>
<path style="fill:#F2BC9C;" d="M1420.643,566.254c7.08-35.404,35.117-48.04,52.115-37.416c13.897,8.685,30.043,34.309,20.566,57.053
	c3.158,0.63,6.159,2.726,6.159,8.425c0,12.027-9.354,12.027-13.362,9.354c-1.348-0.898-2.386-2.098-3.181-3.295
	c-7.036,6.492-17.256,12.256-31.563,16.658C1422.563,625.898,1415.297,592.979,1420.643,566.254z"/>
<path style="fill:#298BF5;" d="M1518.191,937.743c0,0,38.49,119.397,31.809,206.257s-35.816,453.871-83.924,469.906
	c-48.106,16.036-64.142-30.734-73.496-64.142c-9.354-33.407-13.362-400.888-13.362-400.888s-9.354,34.744-12.027,50.779
	c-2.672,16.035,13.363,276.612,0,332.736c-13.362,56.125-25.39,78.842-54.788,84.187s-44.098-229.843-49.442-323.383
	s-12.026-136.302,0-204.452c12.026-68.151,50.779-172.382,50.779-172.382L1518.191,937.743z"/>
<path style="fill:#2071F5;" d="M1298.867,1600.871c8.461-8.486,29.071-36.986,32.244-115.248
	c3.162-77.997-33.581-392.794-49.245-473.196l0.003-0.011c0.931-3.148,1.869-6.276,2.812-9.375c0.006-0.02,0.012-0.04,0.019-0.06
	c10.851-35.698,22.105-67.499,26.787-80.451c0.012-0.03,0.023-0.063,0.034-0.092c0.4-1.107,0.752-2.077,1.051-2.895
	c0-0.001,0.001-0.003,0.001-0.003c0.137-0.375,0.259-0.708,0.372-1.018c0.022-0.061,0.047-0.127,0.068-0.186
	c0.22-0.599,0.392-1.066,0.513-1.394c0.015-0.04,0.027-0.074,0.04-0.11c0.05-0.136,0.094-0.254,0.122-0.329
	c0.002-0.005,0.004-0.012,0.006-0.017c0.028-0.076,0.046-0.123,0.046-0.123l204.452,21.381c0,0,0.007,0.026,0.018,0.075
	c0,0.002,0.001,0.006,0.002,0.008c0.009,0.041,0.023,0.107,0.039,0.179c0.006,0.026,0.013,0.058,0.02,0.087
	c0.092,0.42,0.262,1.215,0.498,2.373c0.001,0.002,0.001,0.003,0.001,0.005c0.059,0.284,0.12,0.593,0.187,0.92
	c0.004,0.023,0.009,0.047,0.014,0.07c0.067,0.337,0.138,0.693,0.213,1.073c-27.009,13.731-102.211,54.802-118.584,94.096
	c-20.044,48.105-22.533,116.592-22.533,116.592l0,0c-0.04,0.152-0.082,0.315-0.124,0.474c-0.055,0.21-0.11,0.419-0.168,0.639
	c-0.046,0.179-0.095,0.362-0.143,0.547c-0.06,0.228-0.12,0.459-0.183,0.696c-0.049,0.188-0.098,0.374-0.147,0.567
	c-0.072,0.275-0.146,0.561-0.221,0.848c-0.046,0.176-0.09,0.345-0.137,0.524c-0.114,0.445-0.234,0.904-0.355,1.374
	c-0.037,0.146-0.076,0.296-0.114,0.444c-0.098,0.376-0.195,0.758-0.296,1.148c-0.04,0.158-0.081,0.317-0.122,0.478
	c-0.101,0.392-0.203,0.791-0.307,1.196c-0.042,0.163-0.083,0.323-0.125,0.488c-0.14,0.55-0.281,1.106-0.426,1.675
	c-0.02,0.075-0.039,0.153-0.059,0.229c-0.126,0.499-0.254,1.004-0.383,1.516c-0.049,0.195-0.099,0.391-0.147,0.587
	c-0.105,0.418-0.211,0.84-0.317,1.265c-0.047,0.189-0.094,0.377-0.142,0.566c-0.121,0.484-0.243,0.973-0.364,1.464
	c-0.036,0.146-0.072,0.288-0.107,0.434c-0.156,0.628-0.313,1.26-0.469,1.896c-0.025,0.103-0.051,0.207-0.076,0.312
	c-0.13,0.527-0.26,1.058-0.389,1.59c-0.047,0.193-0.095,0.386-0.142,0.579c-0.113,0.467-0.227,0.935-0.339,1.403
	c-0.048,0.196-0.096,0.393-0.143,0.59c-0.145,0.601-0.289,1.202-0.432,1.804c-0.01,0.04-0.02,0.08-0.029,0.12
	c-0.153,0.647-0.307,1.294-0.458,1.94c-0.04,0.171-0.08,0.341-0.12,0.513c-0.112,0.48-0.225,0.96-0.335,1.438
	c-0.046,0.196-0.091,0.394-0.137,0.59c-0.112,0.489-0.224,0.976-0.335,1.461c-0.035,0.152-0.07,0.307-0.104,0.459
	c-0.145,0.637-0.287,1.269-0.427,1.896c-0.017,0.074-0.032,0.146-0.049,0.22c-0.119,0.538-0.237,1.072-0.354,1.601
	c-0.04,0.188-0.08,0.373-0.121,0.56c-0.094,0.431-0.185,0.856-0.274,1.278c-0.041,0.191-0.082,0.383-0.122,0.572
	c-0.1,0.471-0.197,0.935-0.292,1.395c-0.022,0.109-0.046,0.223-0.069,0.332c-0.116,0.566-0.229,1.121-0.337,1.668
	c-0.027,0.136-0.053,0.268-0.079,0.402c-0.079,0.402-0.156,0.8-0.23,1.189c-0.035,0.179-0.068,0.355-0.101,0.531
	c-0.067,0.357-0.132,0.708-0.194,1.054c-0.029,0.156-0.059,0.315-0.086,0.47c-0.086,0.484-0.169,0.959-0.245,1.414
	c-2.672,16.035,13.363,276.612,0,332.736c-13.362,56.125-25.39,78.842-54.788,84.187
	C1307.488,1617.473,1302.985,1611.637,1298.867,1600.871z"/>
<path style="fill:#F2BC9C;" d="M1552.363,626.419c75.37-39.917,147.162-82.44,212.674-97.704
	c8.425-5.916,5.574-21.841,13.435-22.283c6.394-0.36,1.37,15.513,1.37,15.513s75.72-0.053,50.158,12.056
	c-19,9-47.363,18.278-47.363,18.278c-73.193,32.338-126.101,79.044-174.464,123.752L1552.363,626.419z"/>
<path style="fill:#F2BC9C;" d="M1371.601,611.791c-72.531-44.869-141.319-92.099-205.663-111.709
	c-8.011-6.467-4.101-22.165-11.915-23.133c-6.354-0.786-2.403,15.387-2.403,15.387s-75.547-5.116-50.853,8.675
	c18.355,10.25,46.034,21.405,46.034,21.405c70.867,37.16,120.533,87.3,165.797,135.143L1371.601,611.791z"/>
<path style="fill:#1B1464;" d="M1460.649,1615.477c0,0,12.108,25.156,9.437,35.846c-2.673,10.691-94.877,12.027-97.55,6.682
	c-2.673-5.345,10.69-22.717,26.726-29.398s36.797-13.129,36.797-13.129H1460.649z"/>
<path style="fill:#1B1464;" d="M1322.844,1611.234c0,0,10.668,22.16,8.313,31.577c-2.354,9.418-83.58,10.595-85.935,5.886
	c-2.354-4.708,9.417-20.012,23.544-25.897c14.126-5.886,32.416-11.565,32.416-11.565H1322.844z"/>
<path style="fill:#FF2E57;" d="M1554.771,538.255c-3.521-36.382-31.688-22.299-31.688-22.299s11.736-45.771-14.083-50.465
	c-18.966-3.448-25.894,12.092-28.238,20.589c-9.997-10.694-22.36-15.061-34.73-10.694c-20.379,7.189-21.407,41.278-5.946,56.9
	c1.764,1.791,3.754,3.327,5.946,4.57c21.381,12.026,40.837,6.32,40.837,6.32c7.911,11.786,12.642,27.861,6.454,42.708
	c3.153,0.642,6.16,2.726,6.16,8.432c0,12.027-9.354,12.027-13.362,9.354c-1.35-0.896-2.393-2.098-3.181-3.301
	c-1.27,1.176-2.659,2.325-4.143,3.447l-0.694,5.199c0,0,6.681,2.672,14.699,4.008c8.018,1.337,25.39-5.345,26.725-25.389
	c0.193-2.891,0.072-5.497-0.286-7.959c0.194-2.418,0.322-4.934,0.322-7.387C1519.563,561.727,1558.292,574.637,1554.771,538.255z"/>
<path style="fill:#FFC371;" d="M1591,598c-62,36-88,26-110,41l0.184,0.549c-2.049,3.63-16.4,27.766-32.479,21.582
	c-17.372-6.682-11.05-24.341-11.05-24.341C1393,618,1371,598,1337,580c-48.1,5.657-57.875,38.245-73,59c21,29,56,42,60,82
	c-34.545,99.066-61.18,196.163-42,247c82.114,15.143,192.125,42.076,255,9c-6.292-84.94-3-110,4-159c21-71,55-121,83-142
	C1620.666,644.144,1628.072,619.309,1591,598z"/>
<path style="fill:#F2F2F2;" d="M1431.201,602.192l19.363,0.82c0,0-1.813,10.207-9.112,10.112
	C1434.153,613.029,1431.201,602.192,1431.201,602.192z"/>
<path style="fill:#FFA658;" d="M1286.871,605.285c-9.595,11.113-15.624,23.771-22.871,33.715
	c20.558,28.39,54.514,41.463,59.688,79.527c2.735-9.617,13.285-44.642,25.313-57.527c14-15,27-22,27-22s-8,3-48-11
	C1311.305,622.156,1297.41,613.45,1286.871,605.285z"/>
<path style="fill:#35105F;" d="M1488,1016c0.137,23.392-0.072,46.782-0.242,70.174c-0.31,23.389-0.669,46.779-1.207,70.166
	l-0.396,17.541l-0.526,17.537c-0.326,11.693-0.795,23.382-1.212,35.072c-0.198,5.845-0.436,11.689-0.703,17.533l-0.765,17.531
	c-0.515,11.688-1.204,23.368-1.796,35.053l-1.172,17.515c-0.425,5.836-0.739,11.678-1.254,17.509
	c-1.012,11.663-1.837,23.338-3.187,34.977l-0.927,8.734l-0.469,4.367l-0.607,4.355l-2.449,17.411l-2.667,17.315l-2.422,17.354
	c-3.028,23.166-5.244,46.442-6.729,69.768c-1.566,23.32-2.372,46.703-2.077,70.091c-0.53-11.685-0.588-23.39-0.45-35.088
	c0.147-11.698,0.475-23.398,1.06-35.087c1.189-23.375,3.15-46.717,5.907-69.97l2.223-17.421l2.595-17.372l2.37-17.339l0.588-4.334
	l0.45-4.355l0.89-8.713c1.3-11.604,2.079-23.268,3.044-34.91c0.491-5.82,0.782-11.66,1.184-17.488l1.108-17.496
	c2.847-46.668,4.531-93.41,6.094-140.153c0.818-23.372,1.43-46.751,2.042-70.13C1486.96,1062.768,1487.461,1039.385,1488,1016z"/>
</svg>
