<svg width="1703" height="390" viewBox="0 0 1703 390" fill="none" xmlns="http://www.w3.org/2000/svg">
<path d="M163.113 29.5897C185.659 -9.86331 242.026 -9.8632 264.572 29.5898L419.75 301.126C442.296 340.579 414.113 389.895 369.02 389.895L58.6651 389.895C13.5719 389.895 -14.6113 340.579 7.93534 301.126L163.113 29.5897Z" fill="#4C49E4"/>
<path d="M207.533 96.2657C228.733 59.0781 281.734 59.0781 302.935 96.2657L422.625 306.216C443.826 343.404 417.325 389.888 374.925 389.888L135.543 389.888C93.1424 389.888 66.642 343.404 87.8424 306.216L207.533 96.2657Z" fill="#3376E7"/>
<path d="M273.274 162.158C288.983 134.708 328.255 134.708 343.964 162.158L438.954 328.142C454.663 355.591 435.027 389.903 403.609 389.903H213.63C182.212 389.903 162.576 355.591 178.285 328.142L273.274 162.158Z" fill="#26F3A8"/>
<path d="M635.125 153.735C634.378 146.196 631.169 140.339 625.499 136.165C619.83 131.99 612.135 129.903 602.415 129.903C595.811 129.903 590.234 130.838 585.686 132.707C581.138 134.514 577.649 137.037 575.219 140.277C572.851 143.517 571.668 147.193 571.668 151.305C571.543 154.732 572.259 157.722 573.817 160.277C575.437 162.831 577.649 165.043 580.453 166.912C583.256 168.719 586.496 170.308 590.172 171.679C593.848 172.987 597.773 174.109 601.948 175.043L619.144 179.155C627.493 181.024 635.157 183.517 642.135 186.632C649.113 189.747 655.157 193.579 660.266 198.127C665.375 202.676 669.331 208.034 672.135 214.202C675.001 220.37 676.465 227.442 676.527 235.417C676.465 247.13 673.474 257.286 667.555 265.884C661.699 274.42 653.225 281.056 642.135 285.791C631.107 290.464 617.805 292.8 602.228 292.8C586.777 292.8 573.319 290.433 561.854 285.697C550.453 280.962 541.543 273.953 535.125 264.669C528.77 255.324 525.437 243.766 525.125 229.996H564.284C564.72 236.414 566.558 241.772 569.798 246.071C573.101 250.308 577.493 253.517 582.976 255.697C588.521 257.816 594.783 258.875 601.761 258.875C608.615 258.875 614.565 257.878 619.611 255.884C624.72 253.89 628.677 251.118 631.481 247.566C634.284 244.015 635.686 239.934 635.686 235.324C635.686 231.024 634.409 227.411 631.854 224.482C629.362 221.554 625.686 219.062 620.826 217.006C616.029 214.95 610.141 213.081 603.163 211.398L582.322 206.165C566.185 202.239 553.443 196.102 544.097 187.753C534.752 179.405 530.11 168.158 530.172 154.015C530.11 142.426 533.194 132.302 539.425 123.641C545.717 114.981 554.347 108.221 565.312 103.361C576.278 98.5011 588.739 96.0712 602.696 96.0712C616.901 96.0712 629.3 98.5011 639.892 103.361C650.546 108.221 658.833 114.981 664.752 123.641C670.671 132.302 673.724 142.333 673.91 153.735H635.125ZM702.999 343.922V146.538H742.252V170.651H744.027C745.772 166.788 748.295 162.862 751.597 158.875C754.962 154.825 759.323 151.461 764.681 148.781C770.102 146.04 776.831 144.669 784.868 144.669C795.336 144.669 804.993 147.411 813.84 152.894C822.688 158.314 829.759 166.507 835.055 177.473C840.351 188.376 842.999 202.052 842.999 218.501C842.999 234.514 840.414 248.034 835.242 259.062C830.133 270.028 823.155 278.345 814.308 284.015C805.523 289.623 795.678 292.426 784.775 292.426C777.049 292.426 770.476 291.149 765.055 288.595C759.697 286.04 755.305 282.831 751.878 278.968C748.451 275.043 745.834 271.087 744.027 267.099H742.812V343.922H702.999ZM741.971 218.314C741.971 226.85 743.155 234.295 745.523 240.651C747.89 247.006 751.317 251.959 755.803 255.51C760.289 259 765.741 260.744 772.158 260.744C778.638 260.744 784.121 258.968 788.607 255.417C793.093 251.803 796.488 246.819 798.794 240.464C801.161 234.046 802.345 226.663 802.345 218.314C802.345 210.028 801.192 202.738 798.887 196.445C796.582 190.152 793.186 185.23 788.7 181.679C784.214 178.127 778.7 176.352 772.158 176.352C765.678 176.352 760.195 178.065 755.71 181.492C751.286 184.919 747.89 189.778 745.523 196.071C743.155 202.364 741.971 209.778 741.971 218.314ZM869.541 290.09V146.538H908.139V171.585H909.635C912.251 162.676 916.644 155.947 922.812 151.398C928.98 146.788 936.083 144.482 944.121 144.482C946.114 144.482 948.264 144.607 950.569 144.856C952.875 145.105 954.899 145.448 956.644 145.884V181.211C954.775 180.651 952.189 180.152 948.887 179.716C945.585 179.28 942.563 179.062 939.822 179.062C933.965 179.062 928.731 180.339 924.121 182.894C919.572 185.386 915.959 188.875 913.28 193.361C910.663 197.847 909.354 203.018 909.354 208.875V290.09H869.541ZM1069.28 228.968V146.538H1109.1V290.09H1070.87V264.015H1069.38C1066.14 272.426 1060.75 279.186 1053.21 284.295C1045.73 289.404 1036.61 291.959 1025.83 291.959C1016.23 291.959 1007.79 289.778 1000.5 285.417C993.209 281.056 987.508 274.856 983.396 266.819C979.346 258.781 977.29 249.155 977.228 237.94V146.538H1017.04V230.838C1017.1 239.311 1019.38 246.009 1023.86 250.931C1028.35 255.853 1034.36 258.314 1041.9 258.314C1046.7 258.314 1051.18 257.224 1055.36 255.043C1059.53 252.8 1062.9 249.498 1065.45 245.137C1068.07 240.775 1069.35 235.386 1069.28 228.968ZM1205.8 292.894C1191.1 292.894 1178.45 289.778 1167.86 283.548C1157.33 277.255 1149.23 268.532 1143.56 257.38C1137.95 246.227 1135.15 233.392 1135.15 218.875C1135.15 204.171 1137.98 191.274 1143.65 180.183C1149.39 169.031 1157.52 160.339 1168.05 154.109C1178.58 147.816 1191.1 144.669 1205.62 144.669C1218.14 144.669 1229.1 146.943 1238.51 151.492C1247.92 156.04 1255.37 162.426 1260.85 170.651C1266.33 178.875 1269.35 188.532 1269.91 199.623H1232.34C1231.29 192.457 1228.48 186.694 1223.93 182.333C1219.45 177.909 1213.56 175.697 1206.27 175.697C1200.1 175.697 1194.71 177.38 1190.1 180.744C1185.55 184.046 1182 188.875 1179.45 195.23C1176.89 201.585 1175.62 209.28 1175.62 218.314C1175.62 227.473 1176.86 235.261 1179.35 241.679C1181.91 248.096 1185.49 252.987 1190.1 256.352C1194.71 259.716 1200.1 261.398 1206.27 261.398C1210.82 261.398 1214.9 260.464 1218.51 258.595C1222.19 256.725 1225.21 254.015 1227.58 250.464C1230.01 246.85 1231.6 242.52 1232.34 237.473H1269.91C1269.29 248.439 1266.3 258.096 1260.94 266.445C1255.65 274.732 1248.33 281.211 1238.98 285.884C1229.63 290.557 1218.58 292.894 1205.8 292.894ZM1360.83 292.894C1346.06 292.894 1333.35 289.903 1322.7 283.922C1312.1 277.878 1303.94 269.342 1298.21 258.314C1292.48 247.224 1289.61 234.109 1289.61 218.968C1289.61 204.202 1292.48 191.243 1298.21 180.09C1303.94 168.937 1312.01 160.246 1322.41 154.015C1332.88 147.785 1345.16 144.669 1359.24 144.669C1368.71 144.669 1377.52 146.196 1385.69 149.249C1393.91 152.239 1401.08 156.757 1407.18 162.8C1413.35 168.844 1418.15 176.445 1421.57 185.604C1425 194.7 1426.71 205.355 1426.71 217.567V228.501H1305.5V203.828H1389.24C1389.24 198.096 1387.99 193.018 1385.5 188.595C1383.01 184.171 1379.55 180.713 1375.13 178.221C1370.76 175.666 1365.69 174.389 1359.89 174.389C1353.85 174.389 1348.49 175.791 1343.82 178.595C1339.21 181.336 1335.59 185.043 1332.98 189.716C1330.36 194.327 1329.02 199.467 1328.96 205.137V228.595C1328.96 235.697 1330.27 241.834 1332.88 247.006C1335.56 252.177 1339.33 256.165 1344.19 258.968C1349.05 261.772 1354.81 263.174 1361.48 263.174C1365.9 263.174 1369.95 262.551 1373.63 261.305C1377.31 260.059 1380.45 258.19 1383.07 255.697C1385.69 253.205 1387.68 250.152 1389.05 246.538L1425.87 248.968C1424 257.816 1420.17 265.542 1414.38 272.146C1408.65 278.688 1401.23 283.797 1392.13 287.473C1383.1 291.087 1372.66 292.894 1360.83 292.894ZM1493.91 98.688V290.09H1453.44V98.688H1493.91ZM1595.05 290.09H1527.2V98.688H1595.62C1614.87 98.688 1631.44 102.52 1645.34 110.183C1659.23 117.785 1669.91 128.719 1677.39 142.987C1684.93 157.255 1688.7 174.327 1688.7 194.202C1688.7 214.14 1684.93 231.274 1677.39 245.604C1669.91 259.934 1659.17 270.931 1645.15 278.595C1631.19 286.258 1614.49 290.09 1595.05 290.09ZM1567.67 255.417H1593.37C1605.34 255.417 1615.4 253.299 1623.56 249.062C1631.78 244.763 1637.95 238.127 1642.06 229.155C1646.24 220.121 1648.33 208.47 1648.33 194.202C1648.33 180.059 1646.24 168.501 1642.06 159.529C1637.95 150.557 1631.82 143.953 1623.65 139.716C1615.49 135.479 1605.43 133.361 1593.47 133.361H1567.67V255.417Z" fill="black"/>
</svg>
